<svg width="22" height="16" viewBox="0 0 22 16" fill="none" xmlns="http://www.w3.org/2000/svg">
<path d="M13.2871 7.15126H19.4787V2.30357H13.2871V7.15126ZM16.3829 5.96008L14.0798 4.16176V3.23319L16.3829 5.03046L18.6869 3.23319V4.16176L16.3829 5.96008ZM2.45385 16C2.02274 16 1.66306 15.8379 1.37482 15.5137C1.08658 15.1894 0.942152 14.7857 0.941528 14.3025V1.69748C0.941528 1.21429 1.08596 0.810575 1.37482 0.486345C1.66369 0.162115 2.02305 0 2.45291 0H20.0186C20.4491 0 20.8088 0.162115 21.0977 0.486345C21.3865 0.810575 21.5306 1.21429 21.53 1.69748V14.3025C21.53 14.7857 21.3859 15.1894 21.0977 15.5137C20.8094 15.8379 20.4497 16 20.0186 16H2.45385ZM8.42825 10.3424C9.07648 10.3424 9.62862 10.0865 10.0847 9.57458C10.5408 9.06267 10.7685 8.44293 10.7679 7.71534C10.7672 6.98775 10.5395 6.3687 10.0847 5.85819C9.62987 5.34769 9.07772 5.09174 8.42825 5.09034C7.77878 5.08894 7.22663 5.34454 6.77181 5.85714C6.317 6.36975 6.08927 6.9895 6.08865 7.71639C6.08803 8.44328 6.31575 9.06267 6.77181 9.57458C7.22788 10.0865 7.78003 10.3431 8.42825 10.3424ZM3.01535 14.9485H13.8421C13.187 13.9989 12.3903 13.2363 11.452 12.6607C10.5136 12.0851 9.50572 11.7976 8.42825 11.7983C7.35079 11.799 6.3432 12.0868 5.40549 12.6618C4.46777 13.2367 3.67106 13.9982 3.01535 14.9485Z" fill="white"/>
</svg>
