<svg width="20" height="20" viewBox="0 0 20 20" fill="none" xmlns="http://www.w3.org/2000/svg">
<g clip-path="url(#clip0_175_258)">
<path d="M4.21054 5.783C4.21054 3.057 4.21054 1.694 5.09896 0.847C5.98633 1.19209e-07 7.41475 0 10.2737 0H13.3053C16.1632 0 17.5926 1.19209e-07 18.4811 0.847C19.3684 1.694 19.3684 3.057 19.3684 5.783V10.603C19.3684 13.329 19.3684 14.692 18.4811 15.539C17.5926 16.386 16.1632 16.386 13.3053 16.386H10.2737C7.4158 16.386 5.98633 16.386 5.09896 15.539C4.21054 14.692 4.21054 13.329 4.21054 10.603V5.783Z" fill="#DBE7F9" fill-opacity="0.69"/>
<path d="M0.631592 9.39701C0.631592 6.67101 0.631592 5.30801 1.52001 4.46101C2.40738 3.61401 3.8358 3.61401 6.69475 3.61401H9.72633C12.5842 3.61401 14.0137 3.61401 14.9021 4.46101C15.7895 5.30801 15.7895 6.67101 15.7895 9.39701V14.217C15.7895 16.943 15.7895 18.306 14.9021 19.153C14.0137 20 12.5842 20 9.72633 20H6.69475C3.83685 20 2.40738 20 1.52001 19.153C0.631592 18.306 0.631592 16.943 0.631592 14.217V9.39701Z" fill="white"/>
</g>
<defs>
<clipPath id="clip0_175_258">
<rect width="20" height="20" fill="white"/>
</clipPath>
</defs>
</svg>
