<svg width="86" height="60" viewBox="0 0 86 60" fill="none" xmlns="http://www.w3.org/2000/svg">
<g clip-path="url(#clip0_169_344)">
<path d="M15.8426 24.2354H5.56738V58.8047H15.8426V24.2354Z" fill="white"/>
<path d="M18.3588 19.174H3.05078V24.2354H18.3588V19.174Z" fill="#BD0000"/>
<path d="M20.2461 6.57373H1.16357V10.8814H20.2461V6.57373Z" fill="#14468F"/>
<path d="M18.3587 10.8813H3.05078L3.90048 15.0813H17.5621L18.3587 10.8813Z" fill="white"/>
<path d="M3.90039 15.0814L4.72822 19.1739H16.7859L17.5621 15.0814H3.90039Z" fill="white"/>
<path d="M20.2462 5.37849H16.5232V2.86853C16.5232 2.20853 16.0021 1.67331 15.3596 1.67331C14.717 1.67331 14.1959 2.20853 14.1959 2.86853V5.37849H6.86487V1.19522C6.86487 0.535219 6.34378 0 5.70121 0C5.05864 0 4.53756 0.535219 4.53756 1.19522V5.37849H1.16366C0.521085 5.37849 0 5.91371 0 6.57371V10.8814C0 11.5414 0.521085 12.0766 1.16366 12.0766H2.10424L2.76124 15.3246L3.29827 17.9786H3.05099C2.40842 17.9786 1.88733 18.5138 1.88733 19.1738V24.2355C1.88733 24.8955 2.40842 25.4307 3.05099 25.4307H4.40374V58.8048C4.40374 59.4648 4.92482 60 5.56739 60H15.8426C16.4852 60 17.0062 59.4648 17.0062 58.8048V25.4307H18.359C19.0016 25.4307 19.5226 24.8955 19.5226 24.2355V19.1738C19.5226 18.5138 19.0016 17.9786 18.359 17.9786H18.1984L18.7045 15.31L19.3177 12.0766H20.2462C20.8888 12.0766 21.4099 11.5414 21.4099 10.8814V6.57371C21.4099 5.91371 20.8889 5.37849 20.2462 5.37849ZM2.32731 7.76892H19.0825V9.68618H18.3589H3.05099H2.32731V7.76892ZM14.6788 57.6096H6.73105V25.4307H14.6789L14.6788 57.6096ZM17.1952 23.0402H15.8425H5.56739H4.21464V20.369H4.72863H16.7862H17.1953L17.1952 23.0402ZM5.67526 17.9786L5.33094 16.2767H16.1501L15.8273 17.9786H5.67526ZM16.6034 13.8863H4.84732L4.48124 12.0766H16.9468L16.6034 13.8863Z" fill="black"/>
<path d="M9.07576 53.6653C9.71834 53.6653 10.2394 53.1301 10.2394 52.4701V34.1833C10.2394 33.5233 9.71834 32.988 9.07576 32.988C8.43319 32.988 7.91211 33.5233 7.91211 34.1833V52.4701C7.91211 53.1301 8.43319 53.6653 9.07576 53.6653Z" fill="black"/>
<path d="M9.07576 30.7171C9.71834 30.7171 10.2394 30.1819 10.2394 29.5219V27.9681C10.2394 27.3081 9.71834 26.7729 9.07576 26.7729C8.43319 26.7729 7.91211 27.3081 7.91211 27.9681V29.5219C7.91211 30.1819 8.43319 30.7171 9.07576 30.7171Z" fill="black"/>
<mask id="mask0_169_344" style="mask-type:luminance" maskUnits="userSpaceOnUse" x="39" y="29" width="47" height="35">
<path d="M45.2116 29L85.7805 39.8704L79.5689 63.0526L39 52.1822L45.2116 29Z" fill="white"/>
</mask>
<g mask="url(#mask0_169_344)">
<path d="M76.3936 39.748L48.4557 48.0472L45.278 44.7585L41.9651 45.4893L46.7507 52.3867C47.3185 53.2052 48.2704 53.5861 49.2229 53.3759L49.4722 53.321L52.8345 52.5792L81.7471 45.8876C83.0883 45.5918 84.0566 44.4745 83.8588 43.0164L83.7762 42.4072C83.468 40.1342 81.1788 38.6226 76.3936 39.748Z" fill="white"/>
<path d="M55.9798 34.6297L51.123 35.7011L59.4924 47.7641L67.0579 46.0952L55.9798 34.6297Z" fill="#518ADF"/>
<path d="M45.1282 45.722L43.3302 46.0505L45.7784 49.6772L48.6906 48.8371L45.1282 45.722Z" fill="#BB0505"/>
<path d="M84.6909 42.8329L84.6082 42.2237C84.4526 41.076 83.9029 40.1214 83.0188 39.4635C81.5445 38.3662 79.2073 38.1527 76.2599 38.8458C76.2448 38.8494 76.2298 38.8534 76.2149 38.8578L64.6442 42.2951L56.5738 33.9423C56.3857 33.7476 56.1198 33.6671 55.8569 33.7251L51.0002 34.7964C50.7087 34.8607 50.461 35.0861 50.3471 35.3906C50.2332 35.6951 50.2699 36.0342 50.4437 36.2847L56.3277 44.7655L48.7252 47.024L45.8721 44.071C45.6839 43.8764 45.418 43.7958 45.1552 43.8539L41.8423 44.5846C41.5509 44.6489 41.3032 44.8743 41.1893 45.1788C41.0754 45.4833 41.1122 45.8225 41.2859 46.0729L46.0714 52.9703C46.5234 53.6217 47.1549 54.063 47.8607 54.2521C48.3328 54.3786 48.8383 54.3922 49.3453 54.2804L52.9651 53.482L81.8697 46.7921C82.7344 46.6014 83.4941 46.1291 84.0092 45.4622C84.5788 44.7248 84.8208 43.791 84.6909 42.8329ZM55.6843 35.6264L65.2784 45.556L62.6744 46.1305L60.4852 43.083C60.2053 42.6934 59.678 42.6439 59.3073 42.9726C58.9367 43.3012 58.8631 43.8834 59.143 44.2732L60.7778 46.5488L59.872 46.7486L52.6237 36.3017L55.6843 35.6264ZM81.6164 44.9848L52.712 51.6747L49.1002 52.4713C48.4548 52.6139 47.8147 52.3577 47.4298 51.8029L43.4659 46.0898L44.9828 45.7552L47.8614 48.7347C48.0637 48.9441 48.3547 49.0203 48.6342 48.9375L57.4128 46.3296L58.813 48.3479C58.9235 48.507 59.0787 48.6152 59.2519 48.6616C59.3675 48.6926 59.4911 48.696 59.6149 48.6688L67.1802 47C67.4948 46.9305 67.7564 46.6742 67.8561 46.3373C67.9559 46.0006 67.8768 45.641 67.6518 45.4081L66.0603 43.7608L76.5493 40.645C78.8899 40.098 80.768 40.194 81.8759 40.9093L78.4597 41.7677C78.0023 41.8827 77.6964 42.3785 77.7767 42.8752C77.8337 43.2275 78.0696 43.4856 78.3652 43.5648C78.4863 43.5972 78.6175 43.5997 78.7504 43.5662L82.9304 42.5157C82.9346 42.541 82.9406 42.5652 82.9441 42.5909L83.0268 43.2001C83.1701 44.2562 82.3609 44.8206 81.6164 44.9848Z" fill="black"/>
</g>
</g>
<defs>
<clipPath id="clip0_169_344">
<rect width="86" height="60" fill="white"/>
</clipPath>
</defs>
</svg>
