<svg width="74" height="74" viewBox="0 0 74 74" fill="none" xmlns="http://www.w3.org/2000/svg">
<g clip-path="url(#clip0_163_252)">
<path d="M37.1999 0.699951C57.1999 0.699951 73.4999 17 73.4999 37C73.4999 57 57.1999 73.3 37.1999 73.3C17.1999 73.3 0.899902 57 0.899902 37C0.899902 17 17.1999 0.699951 37.1999 0.699951Z" fill="white"/>
<path d="M73.9 37H73.1L73 35.1L72.9 33.3L72.6 31.5L72.3 29.7L71.9 28L71.4 26.3L70.8 24.6L70.1 23L69.4 21.4L68.6 19.9L67.7 18.4L66.8 16.9L65.8 15.5L64.7 14.1L63.5999 12.8L62.4 11.6L61.2 10.4L59.9 9.29998L58.5 8.19998L57.0999 7.19998L55.5999 6.29998L54.0999 5.39998L52.5999 4.59998L51 3.89998L49.4 3.19998L47.7 2.59998L46 2.09998L44.2999 1.69998L42.5 1.39998L40.7 1.09998L38.9 0.999976L37.0999 0.899976V0.0999756H39L40.9 0.199975L42.7 0.499976L44.5 0.799976L46.2999 1.19998L48 1.69998L49.7 2.29998L51.4 2.99998L53 3.69998L54.5999 4.49998L56.2 5.39998L57.7 6.39998L59.0999 7.39998L60.5 8.49998L61.7999 9.69998L63.0999 10.9L64.3 12.2L65.5 13.5L66.6 14.9L67.6 16.3L68.6 17.8L69.5 19.4L70.3 21L71 22.6L71.7 24.3L72.3 26L72.8 27.7L73.2 29.5L73.5 31.3L73.7 33.1L73.9 35V37ZM37.2 73.7V72.9L39 72.8L40.7999 72.7L42.5999 72.5L44.4 72.2L46.0999 71.8L47.7999 71.3L49.5 70.7L51.0999 70L52.7 69.3L54.2 68.5L55.7 67.6L57.2 66.7L58.5999 65.7L60 64.6L61.2999 63.5L62.5 62.3L63.7 61.1L64.8 59.8L65.9 58.5L66.9 57.1L67.8 55.6L68.7 54.1L69.5 52.6L70.2 51L70.9 49.4L71.5 47.7L72 46L72.4 44.3L72.7 42.5L73 40.7L73.1 38.9L73.2 37.1H74V39L73.8 40.9L73.6 42.7L73.3 44.5L72.9 46.3L72.4 48L71.8 49.7L71.1 51.4L70.4 53L69.6 54.6L68.7 56.2L67.7 57.7L66.7 59.1L65.6 60.5L64.4 61.8L63.2 63.1L61.9 64.3L60.5999 65.5L59.2 66.6L57.7999 67.6L56.2999 68.6L54.7 69.5L53.0999 70.3L51.5 71L49.7999 71.7L48.0999 72.3L46.4 72.8L44.5999 73.2L42.7999 73.5L41 73.8L39.0999 73.9L37.2 73.7ZM0.499951 37H1.29995V38.8L1.39995 40.6L1.59995 42.4L1.89995 44.2L2.29995 45.9L2.79995 47.6L3.39995 49.3L4.09995 50.9L4.79995 52.5L5.59995 54L6.49995 55.5L7.39995 57L8.39995 58.4L9.49995 59.7L10.6 61L11.8 62.2L13 63.4L14.3 64.5L15.6 65.6L17 66.6L18.5 67.5L20 68.4L21.5 69.2L23.1 69.9L24.7 70.6L26.4 71.2L28.1 71.7L29.7999 72.1L31.6 72.4L33.4 72.6L35.2 72.7L37 72.8V73.6H35.0999L33.2 73.5L31.4 73.2L29.6 72.9L27.7999 72.5L26.1 72L24.4 71.4L22.7 70.7L21.1 70L19.5 69.2L17.9 68.3L16.4 67.3L15 66.3L13.6 65.2L12.3 64L11 62.8L9.79995 61.5L8.59995 60.2L7.49995 58.8L6.49995 57.4L5.49995 55.9L4.59995 54.3L3.79995 52.7L3.09995 51.1L2.39995 49.4L1.79995 47.7L1.29995 46L0.899951 44.2L0.599951 42.4L0.299951 40.6L0.199951 38.7L0.499951 37ZM37.2 0.299976V1.09998L35.4 1.19998L33.5999 1.29998L31.7999 1.59998L30 1.89998L28.2999 2.29998L26.6 2.79998L24.9 3.39998L23.2999 4.09998L21.7 4.79998L20.2 5.59998L18.7 6.49998L17.2 7.39998L15.8 8.39997L14.5 9.49998L13.2 10.6L12 11.8L10.8 13L9.69995 14.3L8.59995 15.7L7.59995 17.1L6.69995 18.6L5.79995 20.1L4.99995 21.6L4.29995 23.2L3.59995 24.8L2.99995 26.5L2.49995 28.2L2.09995 29.9L1.79995 31.7L1.59995 33.5L1.49995 35.3V37.2H0.699951V35.3L0.799951 33.4L1.09995 31.6L1.39995 29.8L1.79995 28L2.29995 26.3L2.89995 24.6L3.59995 22.9L4.29995 21.3L5.09995 19.7L5.99995 18.1L6.99995 16.6L7.99995 15.2L9.09995 13.8L10.3 12.5L11.5 11.2L12.8 9.99998L14.1 8.79998L15.5 7.69998L16.9 6.69998L18.4 5.69998L20 4.79998L21.6 3.99998L23.2 3.29998L24.9 2.59998L26.6 1.99998L28.2999 1.49998L30.1 1.09998L31.9 0.799976L33.7 0.499976L35.5999 0.399976L37.2 0.299976Z" fill="#2F3B80"/>
<path d="M37.1999 4.39996C55.1999 4.39996 69.7999 19.1 69.7999 37C69.7999 54.9 55.0999 69.6 37.1999 69.6C19.2999 69.6 4.59985 54.9 4.59985 37C4.59985 19.1 19.1999 4.39996 37.1999 4.39996Z" fill="#2F3B80"/>
<path d="M69.9999 37H69.5999V35.2999L69.4999 33.7L69.2999 32.0999L68.9999 30.5L68.5999 28.9L68.1999 27.4L67.6999 25.9L67.0999 24.4L66.3999 23L65.6999 21.6L64.8999 20.2L64.0999 18.9L63.1999 17.6L62.1999 16.4L61.1999 15.2L60.0999 14.1L58.9999 13L57.7999 12L56.5999 11L55.2999 10.1L53.9999 9.29995L52.5999 8.49995L51.1999 7.79995L49.7999 7.09995L48.2999 6.49995L46.7999 5.99995L45.2999 5.59995L43.6999 5.19995L42.0999 4.89995L40.4999 4.69995L38.8999 4.59995H37.1999V4.19995H38.8999L40.4999 4.29995L42.0999 4.49995L43.6999 4.79995L45.2999 5.19995L46.8999 5.69995L48.3999 6.19995L49.8999 6.79995L51.2999 7.49995L52.6999 8.19995L54.0999 8.99995L55.3999 9.89995L56.6999 10.8L57.8999 11.8L59.0999 12.8L60.2999 13.9L61.3999 15.1L62.3999 16.3L63.3999 17.5L64.2999 18.8L65.1999 20.1L65.9999 21.5L66.6999 22.9L67.3999 24.2999L67.9999 25.7999L68.4999 27.2999L68.9999 28.9L69.3999 30.5L69.6999 32.0999L69.8999 33.7L69.9999 35.2999V37ZM37.1999 69.8V69.4H38.8999L40.4999 69.3L42.0999 69.1L43.6999 68.8L45.2999 68.4L46.7999 68L48.2999 67.5L49.7999 66.9L51.1999 66.1999L52.5999 65.5L53.9999 64.6999L55.2999 63.9L56.5999 63L57.7999 62L58.9999 61L60.0999 59.9L61.1999 58.7999L62.1999 57.5999L63.1999 56.4L64.0999 55.0999L64.8999 53.7999L65.6999 52.4L66.3999 51L67.0999 49.5999L67.6999 48.0999L68.1999 46.5999L68.5999 45.0999L68.9999 43.5L69.2999 41.9L69.4999 40.2999L69.5999 38.7V37.0999H69.9999V38.7999L69.8999 40.4L69.6999 42L69.3999 43.5999L68.9999 45.2L68.4999 46.7999L67.9999 48.2999L67.3999 49.7999L66.6999 51.2L65.9999 52.5999L65.1999 54L64.2999 55.2999L63.3999 56.5999L62.3999 57.7999L61.3999 59L60.2999 60.0999L59.0999 61.1999L57.8999 62.1999L56.6999 63.1999L55.3999 64.0999L54.0999 65L52.6999 65.8L51.2999 66.5L49.8999 67.1999L48.3999 67.8L46.8999 68.3L45.2999 68.8L43.6999 69.2L42.0999 69.5L40.4999 69.7L38.8999 69.8H37.1999ZM4.3999 37H4.7999V38.5999L4.8999 40.2L5.0999 41.7999L5.3999 43.4L5.7999 45L6.1999 46.5L6.6999 48L7.2999 49.5L7.9999 50.9L8.6999 52.2999L9.4999 53.7L10.2999 55L11.1999 56.2999L12.1999 57.5L13.1999 58.7L14.2999 59.8L15.3999 60.9L16.5999 61.9L17.7999 62.9L19.0999 63.8L20.3999 64.5999L21.7999 65.4L23.1999 66.0999L24.5999 66.8L26.0999 67.4L27.5999 67.9L29.0999 68.3L30.6999 68.7L32.2999 69L33.8999 69.2L35.4999 69.3H37.0999V69.7H35.3999L33.7999 69.6L32.1999 69.4L30.5999 69.1L28.9999 68.7L27.3999 68.1999L25.8999 67.6999L24.3999 67.0999L22.9999 66.4L21.5999 65.6999L20.1999 64.9L18.8999 64L17.5999 63.0999L16.3999 62.0999L15.1999 61.0999L14.0999 60L12.9999 58.9L11.9999 57.7L10.9999 56.5L10.0999 55.2L9.1999 53.9L8.3999 52.5L7.6999 51.0999L6.9999 49.7L6.3999 48.2L5.8999 46.7L5.3999 45.0999L4.9999 43.5L4.6999 41.9L4.4999 40.2999L4.3999 38.7V37ZM37.1999 4.19995V4.59995H35.5999L33.9999 4.69995L32.3999 4.89995L30.7999 5.19995L29.1999 5.59995L27.6999 5.99995L26.1999 6.49995L24.6999 7.09995L23.2999 7.79995L21.8999 8.49995L20.4999 9.29995L19.1999 10.1L17.8999 11L16.6999 12L15.4999 13L14.3999 14.1L13.2999 15.2L12.2999 16.4L11.2999 17.6L10.3999 18.9L9.5999 20.2L8.7999 21.6L8.0999 23L7.3999 24.4L6.7999 25.9L6.2999 27.4L5.8999 28.9L5.4999 30.5L5.1999 32.0999L4.9999 33.7L4.8999 35.2999V37H4.4999V35.2999L4.5999 33.7L4.7999 32.0999L5.0999 30.5L5.4999 28.9L5.9999 27.2999L6.4999 25.7999L7.0999 24.2999L7.7999 22.9L8.4999 21.5L9.2999 20.1L10.1999 18.8L11.0999 17.5L12.0999 16.3L13.0999 15.1L14.1999 13.9L15.2999 12.8L16.4999 11.8L17.6999 10.8L18.9999 9.89995L20.2999 8.99995L21.6999 8.19995L23.0999 7.49995L24.4999 6.79995L25.9999 6.19995L27.4999 5.69995L29.0999 5.19995L30.6999 4.79995L32.2999 4.49995L33.8999 4.29995L35.4999 4.19995H37.1999Z" fill="#2F3B80"/>
<path d="M37.2 10.8C51.7 10.8 63.4 22.6 63.4 37C63.4 51.4 51.6 63.2 37.2 63.2C22.8 63.2 11 51.4 11 37C11 22.6 22.8 10.8 37.2 10.8Z" fill="#E31E24"/>
<path d="M37.1999 16.1C48.7999 16.1 58.1999 25.5 58.1999 37.1C58.1999 48.7 48.7999 58 37.1999 58C25.5999 58 16.2999 48.6 16.2999 37.1C16.1999 25.5 25.6999 16.1 37.1999 16.1Z" fill="#FEFEFE"/>
<path d="M51.5999 37H51V36.3L50.9 35.6L50.7999 34.9L50.7 34.2L50.5999 33.5L50.4 32.8L50.2 32.1L49.9 31.5L49.5999 30.9L49.2999 30.3L49 29.7L48.5999 29.1L48.2 28.6L47.7999 28.1L47.4 27.6L46.9 27.1L46.4 26.6L45.9 26.2L45.4 25.8L44.9 25.4L44.2999 25L43.7 24.7L43.0999 24.4L42.5 24.1L41.9 23.8L41.2 23.6L40.5 23.4L39.7999 23.3L39.0999 23.2L38.4 23.1L37.7 23H37V22.4H37.7L38.4 22.5L39.0999 22.6L39.7999 22.7L40.5 22.9L41.2 23.1L41.9 23.3L42.5999 23.6L43.2999 23.9L43.9 24.2L44.5 24.6L45.0999 25L45.7 25.4L46.2 25.8L46.7 26.3L47.2 26.8L47.7 27.3L48.2 27.8L48.5999 28.3L49 28.9L49.4 29.5L49.7999 30.1L50.0999 30.7L50.4 31.4L50.7 32.1L50.9 32.8L51.0999 33.5L51.2999 34.2L51.4 34.9L51.5 35.6L51.5999 36.3V37ZM37.2 51.4V50.8H37.9L38.5999 50.7L39.2999 50.6L40 50.5L40.7 50.4L41.4 50.2L42.0999 50L42.7 49.7L43.2999 49.4L43.9 49.1L44.5 48.8L45.0999 48.4L45.5999 48L46.0999 47.6L46.5999 47.2L47.0999 46.7L47.5999 46.2L48 45.7L48.4 45.2L48.7999 44.7L49.2 44.1L49.5 43.5L49.7999 42.9L50.0999 42.3L50.4 41.7L50.5999 41L50.7999 40.3L50.9 39.6L51 38.9L51.0999 38.2L51.2 37.5V36.8H51.7999V37.5L51.7 38.2L51.5999 38.9L51.5 39.6L51.2999 40.3L51.0999 41L50.9 41.7L50.5999 42.4L50.2999 43.1L50 43.7L49.5999 44.3L49.2 44.9L48.7999 45.5L48.4 46L47.9 46.5L47.4 47L46.9 47.5L46.4 48L45.9 48.4L45.2999 48.8L44.7 49.2L44.0999 49.6L43.5 49.9L42.7999 50.2L42.0999 50.5L41.4 50.7L40.7 50.9L40 51.1L39.2999 51.2L38.5999 51.3L37.9 51.4H37.2ZM22.7999 37H23.4V37.7L23.5 38.4L23.6 39.1L23.7 39.8L23.7999 40.5L24 41.2L24.2 41.9L24.5 42.5L24.7999 43.1L25.1 43.7L25.4 44.3L25.7999 44.9L26.2 45.4L26.6 45.9L27 46.4L27.5 46.9L28 47.4L28.5 47.8L29 48.2L29.5 48.6L30 49L30.6 49.3L31.2 49.6L31.7999 49.9L32.4 50.2L33.0999 50.4L33.7999 50.6L34.5 50.7L35.2 50.8L35.9 50.9L36.5999 51H37.2999V51.6H36.5999L35.9 51.5L35.2 51.4L34.5 51.3L33.7999 51.1L33.0999 50.9L32.4 50.7L31.7 50.4L31 50.1L30.4 49.8L29.7999 49.4L29.2 49L28.6 48.6L28.1 48.2L27.6 47.7L27.1 47.2L26.6 46.7L26.1 46.2L25.7 45.7L25.2999 45.1L24.9 44.5L24.6 43.9L24.2999 43.3L24 42.6L23.7 41.9L23.5 41.2L23.2999 40.5L23.1 39.8L23 39.1L22.9 38.4L22.7999 37.7V37ZM37.2 22.7V23.3H36.5L35.7999 23.4L35.0999 23.5L34.4 23.6L33.7 23.7L33 23.9L32.2999 24.1L31.7 24.4L31.1 24.7L30.5 25L29.9 25.3L29.4 25.7L28.9 26.1L28.4 26.5L27.9 26.9L27.4 27.4L26.9 27.9L26.5 28.4L26.1 28.9L25.7 29.4L25.2999 30L25 30.6L24.7 31.2L24.4 31.8L24.1 32.4L23.9 33.1L23.7 33.8L23.6 34.5L23.5 35.2L23.4 35.9L23.2999 36.6V37.3H22.7V36.6L22.7999 35.9L22.9 35.2L23 34.5L23.2 33.8L23.4 33.1L23.6 32.4L23.9 31.7L24.2 31L24.5 30.4L24.7999 29.8L25.2 29.2L25.6 28.6L26 28.1L26.5 27.6L27 27.1L27.5 26.6L28 26.1L28.5 25.7L29.1 25.3L29.7 24.9L30.2999 24.5L30.9 24.2L31.6 23.9L32.2999 23.6L33 23.4L33.7 23.2L34.4 23L35.0999 22.9L35.7999 22.8L36.5 22.7H37.2Z" fill="#2F3B80"/>
<path d="M36.8999 10.8C36.8999 10.6 36.9999 10.5 37.1999 10.5C37.3999 10.5 37.4999 10.6 37.4999 10.8H36.8999ZM36.8999 37V10.8H37.4999V37H36.8999ZM37.4999 37C37.4999 37.2 37.3999 37.3 37.1999 37.3C36.9999 37.3 36.8999 37.2 36.8999 37H37.4999Z" fill="#2F3B80"/>
<path d="M37.5999 57.7999C37.5999 57.9999 37.4999 58.0999 37.2999 58.0999C37.0999 58.0999 36.9999 57.9999 36.9999 57.7999H37.5999ZM37.5999 37V57.7999H36.9999V37H37.5999ZM36.8999 37C36.8999 36.8 36.9999 36.7 37.1999 36.7C37.3999 36.7 37.4999 36.8 37.4999 37H36.8999Z" fill="#2F3B80"/>
<path d="M25.3 44.3C25.2 44.4 25 44.3 24.9 44.2C24.8 44 24.9 43.9 25 43.8L25.3 44.3ZM37.4 37.3L25.3 44.3L25 43.8L37.1 36.8L37.4 37.3ZM37.1 36.8C37.2 36.7 37.4 36.8 37.5 36.9C37.6 37.1 37.5 37.2 37.4 37.3L37.1 36.8ZM30.5 49.3C30.4 49.4 30.2 49.5 30.1 49.4C30 49.3 29.9 49.1 30 49L30.5 49.3ZM37.5 37.2L30.5 49.4L30 49.1L37 36.9L37.5 37.2ZM37 36.9C37.1 36.8 37.3 36.7 37.4 36.8C37.5 36.9 37.6 37.1 37.5 37.2L37 36.9ZM44.5 49C44.6 49.1 44.5 49.3 44.4 49.4C44.3 49.5 44.1 49.4 44 49.3L44.5 49ZM37.5 36.9L44.5 49L44 49.3L37 37.2L37.5 36.9ZM37 37.2C36.9 37 37 36.9 37.1 36.8C37.2 36.7 37.4 36.7 37.5 36.9L37 37.2ZM49.5 43.8C49.6 43.9 49.7 44.1 49.6 44.2C49.5 44.3 49.3 44.4 49.2 44.3L49.5 43.8ZM37.4 36.8L49.5 43.8L49.2 44.3L37.1 37.3L37.4 36.8ZM37.1 37.3C37 37.2 36.9 37 37 36.9C37.1 36.7 37.3 36.7 37.4 36.8L37.1 37.3ZM59.7 23.7C59.9 23.6 60 23.7 60.1 23.8C60.2 23.9 60.1 24.1 60 24.2L59.7 23.7ZM37.1 36.8L59.8 23.7L60.1 24.2L37.4 37.3L37.1 36.8ZM37.4 37.3C37.3 37.4 37.1 37.3 37 37.2C36.9 37 37 36.9 37.1 36.8L37.4 37.3ZM50 14.2C50.1 14.1 50.3 14 50.4 14.1C50.5 14.2 50.6 14.4 50.5 14.5L50 14.2ZM36.9 36.9L50 14.2L50.5 14.5L37.4 37.2L36.9 36.9ZM37.5 37.2C37.4 37.3 37.2 37.4 37.1 37.3C37 37.2 36.9 37 37 36.9L37.5 37.2ZM23.8 14.5C23.7 14.4 23.8 14.2 23.9 14.1C24 14 24.2 14.1 24.3 14.2L23.8 14.5ZM36.9 37.2L23.8 14.5L24.3 14.2L37.4 36.9L36.9 37.2ZM37.5 36.9C37.6 37.1 37.5 37.2 37.4 37.3C37.3 37.4 37.1 37.4 37 37.2L37.5 36.9ZM14.4 24.2C14.3 24.1 14.2 23.9 14.3 23.8C14.4 23.6 14.6 23.6 14.7 23.7L14.4 24.2ZM37.1 37.3L14.4 24.2L14.7 23.7L37.4 36.8L37.1 37.3ZM37.4 36.8C37.6 36.9 37.6 37.1 37.5 37.2C37.4 37.3 37.2 37.4 37.1 37.3L37.4 36.8Z" fill="#2F3B80"/>
<path d="M37.2 27L31.5 25.6H42.9L37.2 27Z" fill="#FEFEFE"/>
<path d="M31.6 25.3999L37.3 26.6999L37.2 27.2999L31.5 25.9999L31.6 25.3999ZM31.5 25.9999C31.3 25.9999 31.2 25.7999 31.3 25.5999C31.3 25.3999 31.5 25.2999 31.7 25.3999L31.5 25.9999ZM42.9 25.9999H31.5V25.3999H42.9V25.9999ZM42.9 25.3999C43.1 25.3999 43.2 25.4999 43.2 25.6999C43.2 25.8999 43.1 25.9999 42.9 25.9999V25.3999ZM37.1 26.6999L42.8 25.3999L42.9 25.9999L37.2 27.2999H37.1V26.6999ZM37.3 27.2999C37.1 27.3999 37 27.1999 36.9 27.0999C36.9 26.8999 37 26.7999 37.1 26.6999L37.3 27.2999Z" fill="#2F3B80"/>
<path d="M36.6001 26.9H37.8001V28.7H36.6001V26.9Z" fill="#FEFEFE"/>
<path d="M37.8 27.3H36.5V26.7H37.8L38.1 27L37.8 27.3ZM37.8 26.7C38 26.7 38.1 26.8 38.1 27C38.1 27.2 38 27.3 37.8 27.3V26.7ZM37.5 28.7V27H38.1V28.7L37.8 29L37.5 28.7ZM38.2001 28.7C38.2001 28.9 38.1001 29 37.9001 29C37.7001 29 37.6 28.9 37.6 28.7H38.2001ZM36.6 28.4H37.9001V29H36.6L36.3 28.7L36.6 28.4ZM36.6 29C36.4 29 36.3 28.9 36.3 28.7C36.3 28.5 36.4 28.4 36.6 28.4V29ZM36.9001 26.9V28.6H36.3V26.9L36.6 26.6L36.9001 26.9ZM36.3 26.9C36.3 26.7 36.4 26.6 36.6 26.6C36.8 26.6 36.9001 26.7 36.9001 26.9H36.3Z" fill="#2F3B80"/>
<path d="M38.5 33.2999C38.6 31.0999 38.6 28.9 37.2 28.7C35.8 28.9 35.8 31.0999 35.9 33.2999C36.8 32.7999 37.7 32.7999 38.5 33.2999Z" fill="#FEFEFE"/>
<path d="M37.2001 29L37.1 28.4H37.5L37.6 28.5L37.7001 28.6L37.8 28.7L37.9001 28.8L38 28.9L38.1 29L38.2001 29.1L38.3 29.2L38.4001 29.3L38.5 29.4L38.6 29.5L38.7001 29.7V33.2H38.1V29.9L38 29.8V29.7L37.9001 29.6V29.5L37.8 29.4L37.7001 29.3L37.6 29.2L37.5 29.1L37.4001 29L37.3 28.9H37.2001V29ZM37.2001 29C37.0001 29 36.9001 28.8 36.9001 28.7C36.9001 28.6 37.1001 28.4 37.2001 28.4V29ZM35.8 33L36.1 33.6L35.6 33.3V29.7L35.7001 29.5L35.8 29.4L35.9001 29.3L36 29.2L36.1 29.1L36.2001 29L36.3 28.9L36.4001 28.8L36.5 28.7L36.6 28.6L36.7001 28.5L36.8 28.4H37.1L37.2001 29H36.8L36.7001 29.1L36.6 29.2L36.5 29.3L36.4001 29.4L36.3 29.5L36.2001 29.6V29.7L36.1 29.8V29.9L36 30V33.3L35.8 33ZM36.2001 33.3C36.2001 33.5 36.1001 33.6 35.9001 33.6C35.7001 33.6 35.6 33.5 35.6 33.3H36.2001ZM38.2001 33.3H38.8L38.3 33.6L38.2001 33.5H35.3L35.2001 33.6H35.1L34.8 33H34.9001L35 32.9H37.8L37.9001 33H38L38.2001 33.3ZM38.6 33C38.7 33.1 38.8001 33.3 38.7001 33.4C38.6001 33.5 38.4 33.6 38.3 33.5L38.6 33Z" fill="#2F3B80"/>
<path d="M34.7 40.2H31.2999C26.6999 39.2 22 38.4 17.2 38.2V37H33.0999C33.0999 38.2 33.6 39.3 34.7 40.2Z" fill="#2F3B80"/>
<path d="M39.7 40.2H43.0999C47.6999 39.2 52.5 38.4 57.2 38.2V37H41.2999C41.2999 38.2 40.8 39.3 39.7 40.2Z" fill="#2F3B80"/>
<path d="M19.2 41.2C20.3 42 20.9 43.4 21.4 44.8C22.1 46.4 22.7 48 23.3 49.5C23.4 50.6 23.3 51.5 23 52.4C26.9 56 31.6 57.6 36 57.9C36.2 55.3 35.4 53.3 34.5 52.4C32.1 50.8 29.9 49.7 27.8 48.9C27 48.4 26.5 49.5 27.2 50C30 51.4 32.1 52.6 32.3 54C32.3 55 31.6 55.2 30.4 54.5C28.9 53.4 27.3 52.4 25.8 51.3C25.9 49.7 26 47.9 25.3 47C23.7 44.8 22.1 42.6 20.5 40.4C20.1 39.6 18.9 40.2 19.2 41.2Z" fill="#2F3B80"/>
<path d="M55.2 41.2C54.2 42 53.5 43.4 53 44.8C52.4 46.4 51.8 48 51.1 49.5C51 50.6 51.1 51.5 51.4 52.4C47.5 56 42.8 57.6 38.4 57.9C38.2 55.3 39 53.3 39.8 52.4C42.2 50.8 44.4 49.7 46.5 48.9C47.3 48.4 47.8 49.5 47.1 50C44.3 51.4 42.1 52.6 42 54C42.1 55 42.7 55.2 43.9 54.5C45.4 53.4 47 52.4 48.5 51.3C48.4 49.7 48.3 47.9 49 47C50.6 44.8 52.1 42.6 53.7 40.4C54.3 39.6 55.5 40.2 55.2 41.2Z" fill="#2F3B80"/>
<path d="M37.2 67.5L36.1 68.1L36.4 66.9L35.5 66.1L36.7 66L37.2 64.8L37.7 66L38.9 66.1L38 66.9L38.3 68.1L37.2 67.5Z" fill="#FEFEFE"/>
<path d="M41.9 32.7999C42.7 32.7999 43.3 33.3999 43.3 34.1999C43.3 34.9999 42.7 35.5999 41.9 35.5999C41.1 35.5999 40.5 34.9999 40.5 34.1999C40.5 33.3999 41.1 32.7999 41.9 32.7999ZM37.2 32.8999C39.5 32.8999 41.3 34.6999 41.3 36.9999C41.3 39.2999 39.5 41.0999 37.2 41.0999C34.9 41.0999 33.1 39.2999 33.1 36.9999C33.1 34.7999 35 32.8999 37.2 32.8999ZM32.4 32.7999C33.2 32.7999 33.8 33.3999 33.8 34.1999C33.8 34.9999 33.1 35.5999 32.4 35.5999C31.6 35.5999 31 34.9999 31 34.1999C31 33.3999 31.7 32.7999 32.4 32.7999Z" fill="#FEFEFE"/>
<path d="M43.5999 34.2H42.9999V33.9V33.5V33.2999V33.2L42.8999 33.0999L42.7999 33H41.7999V32.4H42.5999L42.6999 32.5H42.8999L42.9999 32.5999L43.0999 32.7L43.1999 32.7999H43.2999L43.3999 32.9L43.4999 33V33.0999L43.5999 33.2L43.6999 33.2999L43.7999 33.4V33.5999L43.8999 33.7V34.2999V34.2H43.5999ZM41.8999 35.9V35.2999H42.9999V35.2H43.0999V35.0999V35V34.7999V34.2H43.6999V35L43.5999 35.0999V35.2999L43.4999 35.4L43.3999 35.5L43.2999 35.5999V35.7L43.1999 35.7999L43.0999 35.9L42.9999 36L42.8999 36.0999L42.7999 36.2H42.6999L42.5999 36.2999H41.7999H41.8999V35.9ZM40.1999 34.2H40.7999V34.9V35.0999V35.2V35.2999V35.4H41.9999V36H40.9999L40.8999 35.9H40.7999L40.6999 35.7999L40.5999 35.7L40.4999 35.5999L40.3999 35.5L40.2999 35.4L40.1999 35.2999L40.0999 35.2V35.0999L39.9999 35L39.8999 34.9V34.0999V34.2H40.1999ZM41.8999 32.5V33.0999H40.7999V33.2H40.6999V33.2999V33.4V33.5999V34V34.2999H40.0999V33.2999L40.1999 33.2L40.2999 33.0999V33L40.3999 32.9L40.4999 32.7999L40.5999 32.7L40.6999 32.5999H40.7999L40.8999 32.5L40.9999 32.4L41.0999 32.2999H41.2999L41.3999 32.2H41.9999H41.8999V32.5ZM41.5999 37H40.9999V36L40.8999 35.7999L40.7999 35.5999L40.6999 35.4L40.5999 35.2L40.4999 35L40.3999 34.9L40.2999 34.7L40.1999 34.5999L40.0999 34.5L39.9999 34.4L39.8999 34.2999L39.7999 34.2L39.6999 34.0999L39.5999 34L39.4999 33.9L39.2999 33.7999L39.1999 33.7L38.9999 33.5999L38.7999 33.5L38.5999 33.4L38.3999 33.2999L38.1999 33.2H37.1999V32.5999H37.9999L38.1999 32.7L38.3999 32.7999L38.5999 32.9L38.7999 33L38.9999 33.0999L39.1999 33.2L39.3999 33.2999L39.5999 33.4L39.7999 33.5L39.9999 33.5999L40.1999 33.7L40.2999 33.7999L40.3999 33.9L40.4999 34.0999L40.5999 34.2999L40.6999 34.5L40.7999 34.7L40.8999 34.9L40.9999 35.0999L41.0999 35.2999L41.1999 35.5L41.2999 35.7L41.3999 35.9L41.4999 36.0999V37H41.5999ZM37.1999 41.4V40.7999H38.1999L38.3999 40.7L38.5999 40.5999L38.7999 40.5L38.9999 40.4L39.1999 40.2999L39.2999 40.2L39.4999 40.0999L39.5999 40L39.6999 39.9L39.7999 39.7999L39.8999 39.7L39.9999 39.5999L40.0999 39.5L40.1999 39.4L40.2999 39.2999L40.3999 39.0999L40.4999 39L40.5999 38.7999L40.6999 38.5999L40.7999 38.4L40.8999 38.2L40.9999 38V37H41.5999V37.7999L41.4999 38L41.3999 38.2L41.2999 38.4L41.1999 38.5999L41.0999 38.7999L40.9999 39L40.8999 39.2L40.7999 39.4L40.6999 39.5999L40.5999 39.7999L40.4999 40L40.3999 40.0999L40.2999 40.2L40.0999 40.2999L39.8999 40.4L39.6999 40.5L39.4999 40.5999L39.2999 40.7L39.0999 40.7999L38.8999 40.9L38.6999 41L38.4999 41.0999L38.2999 41.2L38.0999 41.2999H37.1999V41.4ZM32.7999 37H33.3999V38L33.4999 38.2L33.5999 38.4L33.6999 38.5999L33.7999 38.7999L33.8999 39L33.9999 39.0999L34.0999 39.2999L34.1999 39.4L34.2999 39.5L34.3999 39.5999L34.4999 39.7L34.5999 39.7999L34.6999 39.9L34.7999 40L34.8999 40.0999L35.0999 40.2L35.1999 40.2999L35.3999 40.4L35.5999 40.5L35.7999 40.5999L35.9999 40.7L36.1999 40.7999H37.1999V41.4H36.3999L36.1999 41.2999L35.9999 41.2L35.7999 41.0999L35.5999 41L35.3999 40.9L35.1999 40.7999L34.9999 40.7L34.7999 40.5999L34.5999 40.5L34.3999 40.4L34.1999 40.2999L34.0999 40.2L33.9999 40.0999L33.8999 39.9L33.7999 39.7L33.6999 39.5L33.5999 39.2999L33.4999 39.0999L33.3999 38.9L33.2999 38.7L33.1999 38.5L33.0999 38.2999L32.9999 38.0999L32.8999 37.9V37H32.7999ZM37.1999 32.5999V33.2H36.1999L35.9999 33.2999L35.7999 33.4L35.5999 33.5L35.3999 33.5999L35.1999 33.7L35.0999 33.7999L34.8999 33.9L34.7999 34L34.6999 34.0999L34.5999 34.2L34.4999 34.2999L34.3999 34.4L34.2999 34.5L34.1999 34.5999L34.0999 34.7L33.9999 34.9L33.8999 35L33.7999 35.2L33.6999 35.4L33.5999 35.5999L33.4999 35.7999L33.3999 36V37H32.7999V36.2L32.8999 36L32.9999 35.7999L33.0999 35.5999L33.1999 35.4L33.2999 35.2L33.3999 35L33.4999 34.7999L33.5999 34.5999L33.6999 34.4L33.7999 34.2L33.8999 34L33.9999 33.9L34.0999 33.7999L34.2999 33.7L34.4999 33.5999L34.6999 33.5L34.8999 33.4L35.0999 33.2999L35.2999 33.2L35.4999 33.0999L35.6999 33L35.8999 32.9L36.0999 32.7999L36.2999 32.7H37.1999V32.5999ZM34.1999 34.2H33.5999V33.9V33.5V33.2999V33.2V33.0999H33.4999V33H32.3999V32.4H33.1999L33.2999 32.5H33.4999L33.5999 32.5999L33.6999 32.7L33.7999 32.7999H33.8999L33.9999 32.9L34.0999 33L34.1999 33.0999L34.2999 33.2V33.2999L34.3999 33.4V33.5L34.4999 33.5999V34.2999V34.2H34.1999ZM32.3999 35.9V35.2999H33.5999V35.2V35.0999V35V34.7999V34.2H34.1999V35.0999L34.0999 35.2V35.2999L33.9999 35.4V35.5L33.8999 35.5999L33.7999 35.7L33.6999 35.7999L33.5999 35.9L33.4999 36L33.3999 36.0999L33.2999 36.2H33.1999L33.0999 36.2999H32.2999H32.3999V35.9ZM30.6999 34.2H31.2999V34.9V35.0999V35.2V35.2999L31.3999 35.4H32.4999V36H31.4999L31.3999 35.9H31.2999L31.1999 35.7999L31.0999 35.7L30.9999 35.5999L30.8999 35.5L30.7999 35.4L30.6999 35.2999V35.2L30.5999 35.0999L30.4999 35V34.7999L30.3999 34.7V34.0999L30.6999 34.2ZM32.3999 32.5V33.0999H31.3999L31.2999 33.2H31.1999V33.2999V33.4V33.5999V34V34.2999H30.5999V33.5L30.6999 33.4V33.2L30.7999 33.0999L30.8999 33V32.9L30.9999 32.7999L31.0999 32.7L31.1999 32.5999H31.2999L31.3999 32.5L31.4999 32.4L31.5999 32.2999H31.7999L31.8999 32.2H32.4999H32.3999V32.5Z" fill="#2F3B80"/>
<path d="M37.2 36.4C37.6 36.4 37.9 36.7 37.9 37.1C37.9 37.4 37.6 37.7 37.2 37.7C36.9 37.7 36.5 37.4 36.5 37.1C36.5 36.7 36.9 36.4 37.2 36.4Z" fill="#2F3B80"/>
<path d="M37.1999 34.1C38.4999 34.1 39.6999 35 39.9999 36.3H39.3999C39.0999 35.4 38.1999 34.8 37.1999 34.8C36.1999 34.8 35.3999 35.4 34.9999 36.3H34.3999C34.6999 35 35.8999 34.1 37.1999 34.1Z" fill="#2F3B80"/>
<path d="M29.8 63.5L29.7 64H29.8C30.3 64.1 30.6 64.4 30.7 64.8C30.8 65.1 30.8 65.5 30.7 65.9C30.6 66.3 30.4 66.6 30 66.8C29.7 67 29.3 67.1 28.8 66.9H28.7L28.5 67.4L27.8 67.1999L28 66.6999H27.9C27.5 66.5999 27.2 66.3 27 66C26.8 65.7 26.8 65.3 27 64.8C27.1 64.4 27.4 64.1 27.7 63.9C28 63.7 28.4 63.7 28.8 63.8H28.9L29 63.3L29.8 63.5ZM29.3 64.6999L28.8 66.1999C28.9 66.2999 29 66.3 29.1 66.3C29.4 66.3 29.6 66.0999 29.8 65.6999C29.9 65.4999 29.9 65.2999 29.9 65.1999C29.8 64.8999 29.7 64.7999 29.3 64.6999ZM28.7 64.5C28.5 64.4 28.3 64.4 28.1 64.5C27.9 64.6 27.8 64.8 27.7 65C27.6 65.3 27.6 65.4999 27.7 65.5999C27.8 65.7999 27.9 65.9 28.2 66L28.7 64.5ZM25.5 64.5L24.2 63.9L24.5 63.3L25.8 63.9L26.1 63.1999L24.6 62.5L24.9 61.8L27.1 62.8L25.5 66.1999L23.3 65.1999L23.6 64.5L25.1 65.1999L25.5 64.5ZM21.9 61L21.5 60.8L22.2 59.4L22.8 59.6999L22.5 60.5L24.3 61.3L24.6 60.5L25.2 60.8L24.6 62.1999L24.3 62.0999C24 62.2999 23.8 62.6 23.5 62.9C23.4 63 23.3 63.2 23.2 63.3C23.1 63.5 23 63.6 22.9 63.9L22.5 64.6999L20.5 63.8L21.9 61ZM21.7 63.4L22.4 63.6999L22.6 63.3C22.7 63.1 22.8 62.9 22.9 62.8C23 62.7 23.1 62.5 23.2 62.4C23.4 62.2 23.5 62 23.7 61.8L22.7 61.3L21.7 63.4ZM19.5 61.0999L18.4 60.0999L18.9 59.5999L20 60.5999L20.5 60L19.3 58.9L19.8 58.4L21.6 60L19.1 62.6999L17.3 61.0999L17.8 60.5999L19 61.6999L19.5 61.0999ZM16.9 60.8L15.9 59.8C15.6 59.5 15.5 59.2999 15.5 59.0999C15.5 58.7999 15.6 58.5 15.9 58.2C16.2 57.8 16.6 57.7 16.9 57.7C17.1 57.7 17.4 57.8 17.6 58L18.1 58.5L19 57.5999L19.6 58.0999L16.9 60.8ZM16.8 59.6999L17.5 59L17.1 58.7C17 58.6 16.9 58.5 16.8 58.5C16.7 58.5 16.6 58.6 16.5 58.7C16.4 58.8 16.3 58.9999 16.3 59.0999C16.3 59.1999 16.4 59.2 16.5 59.3L16.8 59.6999ZM14 58L13.5 57.4L15.5 54.0999L16.1 54.7L15.7 55.2999L16.4 56L17 55.7L17.5 56.2999L14 58ZM15.8 56.4L15.3 55.9L14.5 57.0999L15.8 56.4ZM15.6 54.0999L15 54.5999L14.9 54.5C14.8 54.3 14.6 54.3 14.3 54.4C14.2 54.5 13.9 54.6 13.6 54.9L12.2 56L10.8 54.2L13.7 51.9L14.2 52.5L11.9 54.4L12.4 55L13.4 54.2C13.8 53.9 14.1 53.7 14.3 53.7C14.8 53.6 15.1 53.7 15.4 54C15.5 53.9 15.6 53.9999 15.6 54.0999ZM10 52.2L11.2 51.5L10.9 50.9C10.7 50.5 10.6 50.2 10.8 49.9C10.9 49.7 11.1 49.4999 11.4 49.2999C11.7 49.0999 12.1 48.9999 12.3 49.0999C12.5 49.1999 12.8 49.4 13 49.7L13.7 50.9L10.5 52.7L10 52.2ZM11.7 51.2L12.5 50.7L12.2 50.2C12.1 50.1 12 50 11.9 49.9C11.8 49.9 11.7 49.9 11.6 50C11.4 50.1 11.3 50.1999 11.3 50.2999C11.3 50.3999 11.4 50.4999 11.4 50.5999L11.7 51.2ZM10.2 48.2999L11.6 47.5999L11.9 48.2999L8.5 49.9L8.2 49.2L9.4 48.5999L9 47.7L7.8 48.2999L7.5 47.5999L10.9 46L11.2 46.7L9.8 47.4L10.2 48.2999ZM7 45.5L8.3 45.2L8.2 44.5C8.1 44.1 8.2 43.7999 8.3 43.5999C8.4 43.3999 8.7 43.1999 9.1 43.0999C9.5 42.9999 9.8 43 10 43.2C10.2 43.3 10.4 43.6 10.5 44L10.8 45.4L7.2 46.2L7 45.5ZM9 45L9.9 44.7999L9.8 44.2999C9.8 44.1999 9.7 44 9.6 44C9.5 43.9 9.4 43.9 9.2 44C9.1 44 8.9 44.1 8.9 44.2C8.8 44.3 8.8 44.3999 8.9 44.5999L9 45ZM6.5 43.5999L6.3 42.7999L9.9 42L10.1 42.7L6.5 43.5999ZM8.5 40.7L6 40L5.9 39.2L9.6 38.5999L9.7 39.2999L7.4 39.7L9.9 40.4L10 41.2L6.3 41.7999L6.2 41L8.5 40.7ZM5.3 41.5L5.2 41C5.3 41 5.3 40.9 5.4 40.9C5.46667 40.8333 5.5 40.7333 5.5 40.5999C5.5 40.4999 5.4 40.4 5.3 40.4C5.2 40.4 5.2 40.3 5.1 40.4L5 39.9C5.2 39.9 5.4 39.8999 5.6 40.0999C5.7 40.1999 5.9 40.4 5.9 40.7C6 41 5.9 41.2 5.8 41.4C5.7 41.4 5.5 41.5 5.3 41.5ZM6.6 35.0999L9.6 35.2999L9.5 36.0999L5.8 35.7999L6 33.2L9.7 33.5V34.2999L6.7 34.0999L6.6 35.0999ZM6.2 32.2999L6.4 30.9C6.5 30.6 6.6 30.2999 6.8 30.0999C7 29.8999 7.3 29.8 7.8 29.9C8.3 30 8.6 30.2 8.8 30.5C8.9 30.7 8.9 30.9999 8.9 31.2999L8.8 31.9L10 32L9.9 32.7999L6.2 32.2999ZM7.1 31.5999L8.1 31.7L8.2 31.2C8.2 31 8.2 30.8999 8.1 30.7999C8 30.6999 7.9 30.6999 7.7 30.5999C7.5 30.5999 7.3 30.6 7.2 30.7C7.1 30.8 7.1 30.8 7.1 31V31.5999ZM11 28.5C10.9 28.9 10.6 29.1999 10.3 29.2999C10 29.3999 9.7 29.4 9.4 29.4C9.3 29.4 9.2 29.2999 9.1 29.2999C9 29.2999 8.8 29.2 8.7 29.2C8.4 29.1 8.2 29 8 28.9C7.7 28.7 7.5 28.4 7.4 28.2C7.3 27.9 7.3 27.4999 7.4 27.0999C7.6 26.5999 8 26.2 8.4 26.2C8.8 26.1 9.2 26.2 9.7 26.4C10.2 26.6 10.6 26.7999 10.8 27.0999C11.2 27.4999 11.2 28 11 28.5ZM10.3 28.2999C10.4 28.0999 10.4 27.8999 10.3 27.7999C10.2 27.5999 9.9 27.4 9.4 27.2C8.9 27 8.6 26.9999 8.4 27.0999C8.2 27.1999 8.1 27.3 8 27.5C7.9 27.7 7.9 27.8 8 28C8.1 28.2 8.4 28.3999 8.9 28.5999C9.4 28.7999 9.7 28.8999 9.9 28.7999C10.1 28.5999 10.3 28.4999 10.3 28.2999ZM12.2 25.4L11.7 25.1V25.2C11.4 25.6 11.1 25.8 10.7 25.9C10.4 26 10 25.9 9.6 25.6C9.3 25.4 9 25.0999 8.9 24.7999C8.8 24.3999 8.8 24 9.1 23.6V23.5L8.6 23.2L9 22.5L9.5 22.7999L9.6 22.7C9.8 22.3 10.1 22.1 10.5 22C10.9 21.9 11.3 22 11.7 22.2C12.1 22.5 12.4 22.7 12.5 23.1C12.6 23.4 12.5 23.8 12.3 24.2L12.2 24.2999L12.7 24.6L12.2 25.4ZM11.2 24.7999L9.8 24C9.7 24.1 9.7 24.1999 9.7 24.2999C9.6 24.5999 9.8 24.9 10.1 25.1C10.3 25.2 10.4 25.2999 10.6 25.2999C10.9 25.1999 11.1 24.9999 11.2 24.7999ZM11.6 24.2C11.7 24 11.8 23.8 11.7 23.6C11.7 23.4 11.5 23.3 11.3 23.1C11 23 10.8 22.9 10.7 23C10.5 23.1 10.4 23.2 10.2 23.4L11.6 24.2ZM13.5 20.6L14 20C14.3 20.3 14.5 20.7 14.6 21C14.7 21.3 14.5 21.7 14.3 22C14 22.4 13.7 22.6 13.3 22.6C12.9 22.6 12.4 22.4 11.9 22C11.4 21.6 11.2 21.3 11 20.9C10.8 20.4 10.9 20 11.2 19.6C11.5 19.2 11.9 19 12.4 19C12.7 19 12.9 19.1 13.2 19.3L12.7 19.9C12.5 19.8 12.3 19.7 12.2 19.8C12.1 19.8 12 19.9 11.9 20C11.8 20.1 11.8 20.3 11.8 20.5C11.9 20.8 12.1 21 12.5 21.4C12.9 21.7 13.2 21.7999 13.4 21.7999C13.6 21.7999 13.7 21.7 13.8 21.6C13.9 21.5 14 21.3 13.9 21.2C13.8 21 13.7 20.8 13.5 20.6ZM16.2 19.4C15.9 19.7 15.6 19.9 15.3 19.9C15 19.9 14.7 19.8 14.4 19.7C14.3 19.6 14.2 19.6 14.1 19.5C14 19.4 13.9 19.4 13.8 19.2L13.3 18.7C13.1 18.4 13 18.1 13 17.8C13 17.4 13.1 17.1 13.4 16.8C13.8 16.4 14.2 16.2 14.7 16.3C15.1 16.4 15.5 16.6 15.9 16.9C16.3 17.3 16.6 17.6 16.7 18C16.6 18.5 16.6 19 16.2 19.4ZM15.6 18.9C15.7 18.8 15.8 18.6 15.8 18.4C15.7 18.1 15.5 17.9 15.2 17.5C14.8 17.2 14.5 17 14.2 17C14 17 13.9 17.1 13.7 17.2C13.6 17.3 13.5 17.5 13.6 17.7C13.6 17.9 13.9 18.2 14.2 18.6C14.6 18.9 14.9 19.1 15.1 19.1C15.3 19.2 15.5 19.1 15.6 18.9ZM16.5 15.6L16.8 15.3C16.5 14.8 16.3 14.3 16.4 13.9C16.5 13.6 16.6 13.4 16.9 13.2C17.3 12.8 17.8 12.7 18.2 12.8C18.6 12.9 18.9 13.1 19.3 13.5C19.7 13.9 19.9 14.3 20 14.7C20.1 15.2 20 15.6 19.5 16C19.3 16.1 19.2 16.3 19 16.3C18.7 16.4 18.5 16.4 18.2 16.4C17.9 16.3 17.5 16.1 17.2 15.8L16.9 16.1L18 17.3L17.4 17.8L14.9 15.1L15.5 14.6L16.5 15.6ZM19.1 15.5C19.2 15.4 19.3 15.2 19.3 15C19.3 14.7 19.1 14.4 18.8 14.1C18.5 13.7 18.2 13.5 17.9 13.5C17.7 13.5 17.6 13.6 17.4 13.7C17.3 13.8 17.2 14 17.2 14.2C17.2 14.4 17.4 14.7 17.7 15.1C18 15.5 18.3 15.7 18.6 15.7C18.7 15.7 18.9 15.6 19.1 15.5ZM20.2 13.6L20.9 13.2C21 13.4 21.2 13.5 21.3 13.5C21.4 13.6 21.6 13.5 21.8 13.4C22 13.3 22.1 13.2 22.1 13.1C22.1 13 22.1 12.9 22 12.7C21.9 12.6 21.8 12.5 21.7 12.5H21.6C21.5333 12.5 21.4667 12.5333 21.4 12.6L21 12.8L20.7 12.2L21 12C21.1 11.9 21.2 11.9 21.2 11.8C21.3 11.7 21.3 11.5 21.2 11.4C21.1 11.2 21 11.2 20.9 11.2C20.8 11.2 20.7 11.2 20.6 11.3L20.3 11.6C20.2 11.7 20.3 11.9 20.4 12.1L19.7 12.5C19.5 12.1 19.4 11.8 19.5 11.5C19.6 11.2 19.8 11 20.2 10.7C20.6 10.5 21 10.4 21.3 10.5C21.5 10.6 21.7 10.7 21.8 11C21.9 11.2 21.9 11.3 21.9 11.4C21.9 11.6 21.8 11.8 21.6 12C21.9 11.9 22.1 11.9 22.3 12C22.4 12.1 22.6 12.2 22.7 12.5C22.9 12.9 23 13.2 22.7 13.6C22.6 13.8 22.3 14 22 14.2C21.7 14.4 21.3 14.5 21.1 14.5C20.8 14.3 20.4 14 20.2 13.6ZM24.4 8.49995L25.1 8.19995L27.7 11.1L27 11.4L26.5 10.9L25.6 11.4L25.7 12.1L25 12.5L24.4 8.49995ZM25.4 10.6L26 10.3L25.1 9.19995L25.4 10.6ZM26.8 7.39995L28.3 6.89995C28.6 6.79995 28.9 6.79995 29.1 6.99995C29.3 7.09995 29.4 7.29995 29.4 7.49995C29.5 7.69995 29.5 7.89995 29.4 7.99995C29.3 8.09995 29.3 8.29995 29.1 8.29995C29.2 8.29995 29.4 8.29995 29.5 8.39995C29.8 8.49995 29.9 8.69995 30 9.09995C30.1 9.49995 30.1 9.79995 29.9 9.99995C29.8 10.2 29.5 10.3 29.2 10.4L27.8 10.8L26.8 7.39995ZM27.8 7.89995L28 8.59995L28.6 8.39995C28.7 8.39995 28.7 8.29995 28.8 8.19995V7.89995C28.8 7.79995 28.7 7.69995 28.7 7.69995C28.6 7.59995 28.5 7.59995 28.4 7.69995L27.8 7.89995ZM28.2 9.29995L28.5 10.1L29.2 9.89995C29.3 9.89995 29.4 9.79995 29.4 9.69995C29.5 9.59995 29.5 9.49995 29.4 9.39995C29.3 9.29995 29.3 9.09995 29.2 9.09995C29.1 8.99995 29 8.99995 28.9 9.09995L28.2 9.29995ZM31.6 8.49995L32.5 6.09995L33.3 5.99995L33.7 9.69995L32.9 9.79995L32.6 7.39995L31.7 9.89995L30.9 9.99995L30.5 6.29995L31.3 6.19995L31.6 8.49995ZM34.7 5.79995L35.5 5.69995L36.9 9.29995L36.1 9.39995L35.9 8.69995L34.9 8.79995L34.8 9.49995L34 9.59995L34.7 5.79995ZM34.9 8.19995L35.6 8.09995L35.1 6.69995L34.9 8.19995ZM37.9 8.69995H39L38.9 5.69995H39.7L39.8 8.69995H40.2V10.2H39.5V9.29995L37.2 9.39995L37.1 5.69995H37.9V8.69995ZM41.4 8.39995L42.8 6.19995L43.6 6.29995L43.2 9.99995L42.4 9.89995L42.7 7.49995L41.3 9.79995L40.5 9.69995L40.9 5.99995L41.7 6.09995L41.4 8.39995ZM45.1 10.6C44.7 10.5 44.4 10.3 44.2 9.89995C44.1 9.59995 44 9.29995 44 8.99995C44 8.89995 44 8.69995 44.1 8.59995C44.1 8.49995 44.2 8.39995 44.2 8.19995C44.3 7.89995 44.4 7.69995 44.5 7.49995C44.7 7.19995 44.9 6.99995 45.1 6.79995C45.4 6.59995 45.8 6.59995 46.2 6.69995C46.7 6.89995 47.1 7.19995 47.2 7.69995C47.3 8.09995 47.3 8.49995 47.1 8.99995C46.9 9.49995 46.7 9.89995 46.4 10.2C46.1 10.7 45.6 10.8 45.1 10.6ZM45.3 9.89995C45.5 9.99995 45.7 9.99995 45.8 9.79995C46 9.69995 46.2 9.29995 46.3 8.89995C46.4 8.39995 46.5 7.99995 46.4 7.79995C46.3 7.69995 46.2 7.49995 46 7.49995C45.8 7.39995 45.6 7.39995 45.5 7.49995C45.3 7.59995 45.1 7.99995 45 8.39995C44.9 8.89995 44.8 9.19995 44.9 9.39995C45 9.69995 45.1 9.89995 45.3 9.89995ZM48.4 9.99995L47.7 11.5L47 11.2L48.5 7.79995L49.2 8.09995L48.6 9.39995L49.5 9.79995L50.1 8.59995L50.8 8.89995L49.3 12.3L48.6 12L49.3 10.6L48.4 9.99995ZM51.4 11.5L50.7 12.9L50 12.6L51.5 9.19995L52.2 9.49995L51.6 10.7L52.5 11.1L53.1 9.79995L53.8 10.1L52.3 13.5L51.6 13.2L52.3 11.8L51.4 11.5ZM56 11.8L55.1 12.8L55.6 13.2C55.9 13.5 56.1 13.7 56.1 14.1C56.1 14.4 56 14.6 55.7 14.9C55.4 15.2 55.2 15.4 54.9 15.4C54.6 15.4 54.4 15.3 54 15L52.9 14.1L55.3 11.3L56 11.8ZM54.6 13.4L54 14.1L54.4 14.5C54.5 14.6 54.6 14.6 54.7 14.6C54.8 14.6 54.9 14.5 55 14.4C55.1 14.3 55.1 14.2 55.1 14.1C55.1 14 55 13.9 54.9 13.8L54.6 13.4ZM57.4 13.1L58 13.6L55.6 16.4L55 15.9L57.4 13.1ZM57.9 16.8L56.5 17.3L55.9 16.6L58 16.1L58.7 14.2L59.3 14.9L58.7 16.1L60 15.6L60.6 16.3L58.6 16.8L57.9 18.9L57.2 18.2L57.9 16.8ZM61.5 22L61.8 22.2999L60.5 23.2L60.1 22.6L60.8 22.1L59.6 20.5L58.9 21L58.5 20.4L59.7 19.4L59.9 19.7C60.3 19.6 60.6 19.5 60.9 19.4C61 19.3 61.2 19.3 61.4 19.1C61.5 19 61.7 18.9 61.9 18.8L62.6 18.3L63.9 20.1L61.5 22ZM62.8 20.1L62.4 19.5L62.1 19.8C61.9 19.9 61.8 20.1 61.6 20.1C61.5 20.2 61.3 20.3 61.2 20.3C60.9 20.4 60.7 20.5 60.5 20.6L61.2 21.5L62.8 20.1ZM62.6 23.2L65.2 22.9L65.6 23.6L62.4 25.5L62 24.7999L64 23.6L61.4 23.9L61 23.2L64.2 21.3L64.6 22L62.6 23.2ZM64.7 27.5L65 28.2C64.5 28.3 64.1 28.3999 63.9 28.2999C63.6 28.1999 63.3 28 63.2 27.5C63 27.1 63 26.6999 63.1 26.2999C63.3 25.8999 63.7 25.5999 64.3 25.2999C64.8 25.0999 65.3 25 65.6 25C66.1 25.1 66.5 25.2999 66.7 25.7999C66.9 26.2999 66.9 26.6999 66.7 27.0999C66.5 27.2999 66.3 27.4999 66 27.5999L65.7 26.9C65.9 26.8 66 26.6 66.1 26.5C66.1 26.4 66.1 26.2 66 26.1C65.9 25.9 65.8 25.7999 65.7 25.7999C65.4 25.6999 65.1 25.8 64.6 26C64.1 26.2 63.9 26.4 63.8 26.6C63.7 26.8 63.7 26.8999 63.8 27.0999C63.9 27.2999 64 27.4 64.1 27.4C64.3 27.5 64.5 27.5 64.7 27.5ZM67 29.2L64.1 29.9L63.9 29.2L67.5 28.2999L68.1 30.7999L64.5 31.7L64.3 31L67.2 30.2999L67 29.2ZM66.9 32.7999L67.2 34.2L66.5 34.2999L66.2 32.9L65.4 33L65.7 34.7L65 34.7999L64.6 32.4L68.2 31.7L68.6 34.0999L67.9 34.2L67.6 32.5999L66.9 32.7999ZM67.9 35.9V35H68.6V37.5999H67.9V36.7L64.9 36.5999V35.7999L67.9 35.9ZM68.7 37.9V38.7H67.8C67.6 38.7 67.4 38.6999 67.3 38.7999C67.2 38.8999 67.2 39 67.1 39.2V39.5999L68.6 39.7V40.5L64.9 40.2999L65 39.5L66.5 39.5999V38.9C66.5 38.5 66.6 38.2999 66.7 38.0999C66.9 37.8999 67.2 37.7999 67.6 37.7999L68.7 37.9ZM66.8 41.9L66.6 43.2999L65.9 43.2L66.1 41.7999L65.3 41.7L65.1 43.4L64.4 43.2999L64.7 40.9L68.4 41.2999L68.1 43.7L67.4 43.5999L67.6 42L66.8 41.9ZM67.7 44.9L67.2 46.2999C67.1 46.5999 66.9 46.8 66.7 47C66.4 47.1 66.1 47.1 65.7 47C65.2 46.9 64.9 46.5999 64.8 46.2999C64.7 46.0999 64.8 45.8 64.9 45.5L65.1 44.9L63.9 44.5L64.2 43.7999L67.7 44.9ZM66.8 45.5L65.9 45.2L65.7 45.7C65.7 45.9 65.6 45.9999 65.7 46.0999C65.8 46.1999 65.9 46.2999 66 46.2999C66.2 46.3999 66.3 46.3999 66.5 46.2999C66.5667 46.2333 66.6 46.1333 66.6 46L66.8 45.5ZM62.6 47.7999C62.8 47.3999 63 47.1 63.4 47C63.7 46.9 64 46.9 64.3 46.9C64.4 46.9 64.5 47 64.6 47C64.7 47 64.8 47.0999 65 47.0999C65.3 47.1999 65.5 47.4 65.7 47.5C66 47.7 66.2 48 66.3 48.2C66.4 48.5 66.4 48.8999 66.2 49.2999C66 49.7999 65.6 50.1 65.1 50.2C64.7 50.3 64.3 50.2 63.8 49.9C63.3 49.7 62.9 49.3999 62.8 49.0999C62.4 48.7999 62.4 48.2999 62.6 47.7999ZM63.3 48.0999C63.2 48.2999 63.2 48.3999 63.3 48.5999C63.4 48.7999 63.7 49 64.2 49.2C64.7 49.4 65 49.5 65.2 49.4C65.4 49.3 65.5 49.2 65.6 49C65.7 48.8 65.7 48.7 65.6 48.5C65.5 48.3 65.2 47.9999 64.7 47.7999C64.2 47.5999 63.9 47.4999 63.7 47.5999C63.5 47.7999 63.4 47.8999 63.3 48.0999ZM65.1 51.2L64.5 52.5999C64.3 52.8999 64.1 53.1 63.9 53.2C63.7 53.3 63.5 53.1999 63.2 53.0999C63 52.9999 62.9 52.9 62.8 52.7C62.7 52.6 62.7 52.3999 62.7 52.2999C62.6 52.3999 62.5 52.4999 62.4 52.5999C62.2 52.6999 61.9 52.6999 61.6 52.5999C61.2 52.3999 61 52.2 61 51.9C60.9 51.7 61 51.3999 61.1 51.0999L61.7 49.7999L65.1 51.2ZM64.1 51.5999L63.4 51.2999L63.1 51.7999V52.0999C63.1 52.0999 63.1 52.2 63.2 52.2L63.3 52.2999C63.4 52.2999 63.5 52.3999 63.6 52.2999C63.7 52.1999 63.7 52.1999 63.8 52.0999L64.1 51.5999ZM62.8 51L62 50.7L61.7 51.2999V51.5999C61.7 51.6999 61.8 51.7999 62 51.7999C62.1 51.8999 62.2 51.8999 62.3 51.7999C62.4 51.7999 62.5 51.7 62.5 51.5L62.8 51ZM61.9 56.2999L61 57.4C60.8 57.7 60.5 57.8 60.3 57.9C60 57.9 59.7 57.8 59.4 57.5C59 57.2 58.8 56.8 58.9 56.5C58.9 56.3 59 55.9999 59.2 55.7999L59.6 55.2999L58.6 54.5L59.1 53.9L61.9 56.2999ZM60.9 56.4L60.1 55.7L59.8 56.0999C59.7 56.1999 59.6 56.3 59.7 56.4C59.7 56.5 59.8 56.6 59.9 56.7C60 56.8 60.2 56.8999 60.3 56.7999C60.4 56.7999 60.4 56.6999 60.5 56.5999L60.9 56.4ZM56 57.0999C56.3 56.7999 56.7 56.7 57 56.7C57.3 56.7 57.6 56.8 57.9 57C58 57.1 58.1 57.1 58.2 57.2C58.3 57.3 58.4 57.4 58.5 57.5C58.7 57.7 58.8 57.8999 58.9 58.0999C59.1 58.3999 59.2 58.7 59.2 59C59.2 59.3 59 59.7 58.7 60C58.3 60.4 57.8 60.5 57.3 60.3C56.9 60.2 56.6 59.9 56.2 59.5C55.9 59.1 55.6 58.6999 55.5 58.2999C55.5 57.8999 55.6 57.4999 56 57.0999ZM56.5 57.5999C56.4 57.6999 56.3 57.8999 56.3 58.0999C56.3 58.2999 56.5 58.6 56.8 59C57.1 59.4 57.4 59.5999 57.7 59.5999C57.9 59.5999 58 59.6 58.2 59.4C58.3 59.3 58.4 59.1 58.4 58.9C58.4 58.6 58.2 58.3 57.9 58C57.6 57.7 57.3 57.4 57 57.4C56.9 57.4 56.7 57.4999 56.5 57.5999ZM53.9 60.6999L53.3 61.1999C53 60.7999 52.9 60.3999 52.9 60.0999C52.9 59.7999 53.1 59.4999 53.4 59.1999C53.8 58.8999 54.1 58.7999 54.5 58.7999C54.9 58.8999 55.3 59.1999 55.7 59.6999C56.1 60.1999 56.3 60.6 56.4 60.9C56.5 61.4 56.3 61.7999 55.9 62.1999C55.5 62.5999 55.1 62.7 54.7 62.5C54.4 62.4 54.2 62.2 54 62L54.6 61.5C54.8 61.7 54.9 61.8 55.1 61.8C55.2 61.8 55.3 61.6999 55.5 61.6999C55.6 61.5999 55.7 61.4 55.7 61.3C55.7 61 55.5 60.7 55.2 60.3C54.9 59.9 54.6 59.6999 54.4 59.6999C54.2 59.6999 54.1 59.7 53.9 59.8C53.8 59.9 53.7 59.9999 53.7 60.1999C53.7 60.3999 53.7 60.4999 53.9 60.6999ZM50.9 62.5L50.2 62.8C50 62.4 50 61.9999 50.1 61.6999C50.2 61.3999 50.4 61.2 50.8 61C51.2 60.8 51.6 60.7 52 60.9C52.4 61 52.7 61.4 53 62C53.3 62.5 53.4 63 53.3 63.3C53.3 63.8 53 64.2 52.6 64.4C52.1 64.7 51.7 64.7 51.3 64.4C51.1 64.3 50.9 64.1 50.7 63.8L51.4 63.5C51.5 63.7 51.7 63.8 51.8 63.9C51.9 64 52.1 63.9 52.2 63.8C52.4 63.7 52.5 63.6 52.5 63.4C52.6 63.1 52.4 62.8 52.2 62.3C52 61.9 51.8 61.6 51.5 61.5C51.3 61.4 51.2 61.4 51 61.5C50.9 61.6 50.7 61.7 50.7 61.8C50.8 62 50.8 62.2 50.9 62.5ZM49.2 63.5L49.3 66.0999L48.6 66.4L46.9 63.0999L47.6 62.6999L48.7 64.8L48.6 62.1999L49.3 61.8L51 65.0999L50.3 65.4L49.2 63.5ZM45.8 64.6999L45.5 67.3L44.8 67.5L43.6 64L44.3 63.8L45 66.0999L45.3 63.5L46 63.1999L47.2 66.6999L46.5 67L45.8 64.6999Z" fill="#FEFEFE"/>
</g>
<defs>
<clipPath id="clip0_163_252">
<rect width="74" height="74" fill="white"/>
</clipPath>
</defs>
</svg>
