<svg width="284" height="237" viewBox="0 0 284 237" fill="none" xmlns="http://www.w3.org/2000/svg">
<path d="M64.2753 95.7296H22.5874V232.279H64.2753V95.7296Z" fill="white"/>
<path d="M74.4852 75.7366H12.3784V95.7296H74.4852V75.7366Z" fill="#BD0000"/>
<path d="M82.1418 25.9661H4.72119V42.9815H82.1418V25.9661Z" fill="#14468F"/>
<path d="M74.4847 42.9815H12.3784L15.8258 59.5715H71.2531L74.4847 42.9815Z" fill="white"/>
<path d="M15.8257 59.5715L19.1843 75.7366H68.104L71.253 59.5715H15.8257Z" fill="white"/>
<path d="M82.1417 21.245H67.037V11.3307C67.037 8.72368 64.9229 6.60956 62.3159 6.60956C59.7089 6.60956 57.5948 8.72368 57.5948 11.3307V21.245H27.8518V4.72112C27.8518 2.11412 25.7376 0 23.1306 0C20.5236 0 18.4095 2.11412 18.4095 4.72112V21.245H4.72112C2.11412 21.245 0 23.3591 0 25.9661V42.9815C0 45.5885 2.11412 47.7026 4.72112 47.7026H8.5372L11.2027 60.5323L13.3815 71.0155H12.3783C9.7713 71.0155 7.65718 73.1296 7.65718 75.7366V95.7301C7.65718 98.3371 9.7713 100.451 12.3783 100.451H17.8666V232.279C17.8666 234.886 19.9807 237 22.5877 237H64.2756C66.8826 237 68.9967 234.886 68.9967 232.279V100.451H74.485C77.092 100.451 79.2062 98.3371 79.2062 95.7301V75.7366C79.2062 73.1296 77.092 71.0155 74.485 71.0155H73.8335L75.8867 60.4747L78.3748 47.7026H82.1417C84.7487 47.7026 86.8629 45.5885 86.8629 42.9815V25.9661C86.8629 23.3591 84.7492 21.245 82.1417 21.245ZM9.44223 30.6873H77.4206V38.2604H74.4846H12.3783H9.44223V30.6873ZM59.554 227.558H27.3088V100.451H59.5545L59.554 227.558ZM69.7635 91.0089H64.2752H22.5877H17.0994V80.4577H19.1847H68.104H69.7639L69.7635 91.0089ZM23.0254 71.0155L21.6284 64.2931H65.5234L64.2138 71.0155H23.0254ZM67.3623 54.8509H19.6663L18.181 47.7026H68.7555L67.3623 54.8509Z" fill="black"/>
<path d="M36.8222 211.978C39.4292 211.978 41.5433 209.864 41.5433 207.257V135.024C41.5433 132.417 39.4292 130.303 36.8222 130.303C34.2152 130.303 32.1011 132.417 32.1011 135.024V207.257C32.1011 209.864 34.2152 211.978 36.8222 211.978Z" fill="black"/>
<path d="M36.8222 121.333C39.4292 121.333 41.5433 119.219 41.5433 116.612V110.474C41.5433 107.867 39.4292 105.753 36.8222 105.753C34.2152 105.753 32.1011 107.867 32.1011 110.474V116.612C32.1011 119.219 34.2152 121.333 36.8222 121.333Z" fill="black"/>
<g clip-path="url(#clip0_166_343)">
<path d="M186.403 155.913L187.71 158.486L186.403 155.913C175.195 161.608 167.891 170.18 167.891 180.538C167.891 183.215 169.097 185.603 170.991 187.2H103.641C98.7827 187.2 94.8184 191.126 94.8184 196.004V223.352C94.8184 228.229 98.7823 232.156 103.641 232.156H185.395C185.62 232.18 185.878 232.197 186.159 232.197H260.914C265.19 232.197 268.684 228.74 268.684 224.442V214.733C268.684 210.478 265.261 207.046 261.042 206.978L265.629 187.816C267.012 188.728 268.667 189.259 270.444 189.259C275.256 189.259 279.182 185.369 279.182 180.538C279.182 170.18 271.878 161.608 260.67 155.913L258.858 159.479L260.67 155.913C250.475 150.732 237.28 147.982 223.536 147.982C209.793 147.982 196.598 150.732 186.403 155.913ZM195.416 170.932L195.417 170.931C196.923 170.219 198.578 169.55 200.373 168.939L212.024 206.977H203.998L195.375 170.951C195.388 170.945 195.402 170.938 195.416 170.932ZM117.13 206.708H114.906V205.561H117.13V206.708ZM137.996 206.708H135.772V205.561H137.996V206.708ZM158.863 206.708H156.638V205.561H158.863V206.708ZM179.729 206.708H177.504V205.561H179.729V206.708ZM217.791 166.144L217.791 166.144L217.632 165.626C219.541 165.493 221.511 165.423 223.537 165.423C225.562 165.423 227.532 165.493 229.441 165.626L229.282 166.144L223.537 184.902L217.791 166.144ZM243.075 206.977H235.049L246.7 168.939C248.495 169.549 250.151 170.219 251.657 170.931C251.671 170.938 251.685 170.944 251.699 170.951L243.075 206.977Z" fill="white" stroke="black" stroke-width="8"/>
</g>
<g clip-path="url(#clip1_166_343)">
<path d="M211.719 57.43L159.087 86.654L150.779 82.1417L144.398 85.1382L157.977 95.5338C159.588 96.7674 161.745 97.0003 163.579 96.1389L164.059 95.9134L170.535 92.8722L226.044 66.1409C228.627 64.9279 229.996 62.3791 228.792 59.7778L228.289 58.6909C226.411 54.6356 220.897 52.9728 211.719 57.43Z" fill="white"/>
<path d="M167.128 58.081L157.774 62.4739L181.521 80.6548L196.091 73.8122L167.128 58.081Z" fill="#518ADF"/>
<path d="M151 84L147.5 85.5L154.5 91L160 88L151 84Z" fill="#BB0505"/>
<path d="M230.394 59.0253L229.891 57.9384C228.943 55.8908 227.294 54.3963 225.124 53.6167C221.504 52.3167 216.603 53.0807 210.951 55.8262C210.922 55.8402 210.893 55.855 210.865 55.8707L189.067 67.9741L167.967 56.5137C167.475 56.2466 166.887 56.2293 166.38 56.4672L157.027 60.8599C156.466 61.1234 156.082 61.6637 156.016 62.2839C155.95 62.9041 156.211 63.5138 156.704 63.8913L173.399 76.6733L159.077 84.6259L151.617 80.5744C151.125 80.3073 150.537 80.29 150.031 80.5279L143.651 83.5242C143.089 83.7877 142.706 84.328 142.64 84.9482C142.574 85.5684 142.835 86.1782 143.328 86.5556L156.906 96.9512C158.188 97.933 159.723 98.4368 161.271 98.4368C162.307 98.4368 163.349 98.2112 164.326 97.7527L171.297 94.4788L226.791 67.7547C228.456 66.9727 229.753 65.7214 230.441 64.2312C231.202 62.5835 231.186 60.7347 230.394 59.0253ZM167.07 60.0728L192.153 73.6968L187.138 76.052L180.986 71.4961C180.2 70.9136 179.093 71.0835 178.515 71.8759C177.936 72.6681 178.105 73.7826 178.892 74.3652L183.486 77.7673L181.741 78.5866L161.176 62.8412L167.07 60.0728ZM225.282 64.5344L169.788 91.2584L162.832 94.5251C161.589 95.1089 160.138 94.9522 159.046 94.1162L147.799 85.5055L150.721 84.1335L158.247 88.2215C158.776 88.5089 159.413 88.5057 159.94 88.2137L176.478 79.0309L180.451 82.0728C180.764 82.3126 181.141 82.4359 181.521 82.4359C181.775 82.4359 182.03 82.3808 182.268 82.269L196.838 75.4265C197.444 75.1419 197.839 74.5376 197.858 73.8645C197.878 73.1916 197.519 72.565 196.93 72.2454L192.769 69.9854L212.53 59.0135C217.021 56.8397 220.917 56.0858 223.577 56.8604L217.056 60.1444C216.183 60.5842 215.829 61.6539 216.265 62.5335C216.575 63.1575 217.199 63.5182 217.848 63.5182C218.114 63.5182 218.383 63.4577 218.637 63.3298L226.617 59.3114C226.639 59.3561 226.665 59.398 226.686 59.4437L227.189 60.5306C228.062 62.4147 226.715 63.861 225.282 64.5344Z" fill="black"/>
</g>
<defs>
<clipPath id="clip0_166_343">
<rect width="194" height="94" fill="white" transform="translate(90 143)"/>
</clipPath>
<clipPath id="clip1_166_343">
<rect width="89" height="46" fill="white" transform="matrix(-1 0 0 1 231 53)"/>
</clipPath>
</defs>
</svg>
