<svg width="86" height="60" viewBox="0 0 86 60" fill="none" xmlns="http://www.w3.org/2000/svg">
<path d="M15.8426 24.2354H5.56738V58.8048H15.8426V24.2354Z" fill="white"/>
<path d="M18.3588 19.1739H3.05078V24.2354H18.3588V19.1739Z" fill="#BD0000"/>
<path d="M20.2461 6.57373H1.16357V10.8814H20.2461V6.57373Z" fill="#14468F"/>
<path d="M18.3587 10.8814H3.05078L3.90048 15.0814H17.5621L18.3587 10.8814Z" fill="white"/>
<path d="M3.90039 15.0814L4.72822 19.1739H16.7859L17.5621 15.0814H3.90039Z" fill="white"/>
<path d="M20.2462 5.37849H16.5232V2.86853C16.5232 2.20853 16.0021 1.67331 15.3596 1.67331C14.717 1.67331 14.1959 2.20853 14.1959 2.86853V5.37849H6.86487V1.19522C6.86487 0.535219 6.34378 0 5.70121 0C5.05864 0 4.53756 0.535219 4.53756 1.19522V5.37849H1.16366C0.521085 5.37849 0 5.91371 0 6.57371V10.8814C0 11.5414 0.521085 12.0766 1.16366 12.0766H2.10424L2.76124 15.3246L3.29827 17.9786H3.05099C2.40842 17.9786 1.88733 18.5138 1.88733 19.1738V24.2355C1.88733 24.8955 2.40842 25.4307 3.05099 25.4307H4.40374V58.8048C4.40374 59.4648 4.92482 60 5.56739 60H15.8426C16.4852 60 17.0062 59.4648 17.0062 58.8048V25.4307H18.359C19.0016 25.4307 19.5226 24.8955 19.5226 24.2355V19.1738C19.5226 18.5138 19.0016 17.9786 18.359 17.9786H18.1984L18.7045 15.31L19.3177 12.0766H20.2462C20.8888 12.0766 21.4099 11.5414 21.4099 10.8814V6.57371C21.4099 5.91371 20.8889 5.37849 20.2462 5.37849ZM2.32731 7.76892H19.0825V9.68618H18.3589H3.05099H2.32731V7.76892ZM14.6788 57.6096H6.73105V25.4307H14.6789L14.6788 57.6096ZM17.1952 23.0402H15.8425H5.56739H4.21464V20.369H4.72863H16.7862H17.1953L17.1952 23.0402ZM5.67526 17.9786L5.33094 16.2767H16.1501L15.8273 17.9786H5.67526ZM16.6034 13.8863H4.84732L4.48124 12.0766H16.9468L16.6034 13.8863Z" fill="black"/>
<path d="M9.07576 53.6653C9.71834 53.6653 10.2394 53.1301 10.2394 52.4701V34.1833C10.2394 33.5233 9.71834 32.988 9.07576 32.988C8.43319 32.988 7.91211 33.5233 7.91211 34.1833V52.4701C7.91211 53.1301 8.43319 53.6653 9.07576 53.6653Z" fill="black"/>
<path d="M9.07576 30.7171C9.71834 30.7171 10.2394 30.1819 10.2394 29.5219V27.9681C10.2394 27.3081 9.71834 26.7729 9.07576 26.7729C8.43319 26.7729 7.91211 27.3081 7.91211 27.9681V29.5219C7.91211 30.1819 8.43319 30.7171 9.07576 30.7171Z" fill="black"/>
<g clip-path="url(#clip0_166_343)">
<path d="M59.6728 51.8558L57.0856 43.4907C57.4852 43.355 57.9138 43.2262 58.3699 43.1062L61.8328 51.8558H59.6728ZM78.2547 38.8115C74.8978 37.4913 70.5637 36.7934 66.0533 36.7934C61.5429 36.7934 57.2088 37.4913 53.8519 38.8115C50.285 40.2142 47.5156 42.4761 47.5156 45.5841C47.5156 46.0543 47.6312 46.4612 47.825 46.8064H26.5C25.1791 46.8064 23.4092 47.6875 23.4092 49.5328V56.5155C23.4092 58.3607 25.1789 59.2421 26.5 59.2421H53.4788C53.5508 59.248 53.6331 59.2525 53.7227 59.2525H78.3841C79.5131 59.2525 81.1278 58.4911 81.1278 56.7936V54.3147C81.1278 52.8074 79.8548 52.0382 78.7789 51.8847L80.0033 47.926C80.4987 48.1698 81.0443 48.2895 81.528 48.2895C82.8337 48.2895 84.591 47.4176 84.591 45.5842C84.591 42.4761 81.8216 40.2142 78.2547 38.8115L77.7057 40.2074L78.2547 38.8115ZM66.0534 42.2038C66.5759 42.2038 67.0872 42.2146 67.5865 42.2355L66.0534 46.1094L64.5201 42.2355C65.0195 42.2146 65.5309 42.2038 66.0534 42.2038ZM75.0211 43.4906L72.4337 51.8557H70.2739L73.7366 43.1061C74.1928 43.2261 74.6215 43.3549 75.0211 43.4906Z" fill="white" stroke="black" stroke-width="3"/>
</g>
<g clip-path="url(#clip1_166_343)">
<path d="M65.9012 5.31131L41.0633 20.5586L37.1427 18.2044L34.1318 19.7678L40.5395 25.1916C41.2998 25.8352 42.3179 25.9567 43.1835 25.5072L43.4101 25.3896L46.4659 23.8029L72.6614 9.85615C73.8803 9.2233 74.5264 7.89347 73.958 6.53625L73.7205 5.96916C72.8345 3.85338 70.2321 2.98584 65.9012 5.31131Z" fill="white"/>
<path d="M44.8583 5.651L40.4443 7.94293L51.6507 17.4287L58.5264 13.8586L44.8583 5.651Z" fill="#518ADF"/>
<path d="M37.2474 19.174L35.5957 19.9566L38.8991 22.8261L41.4946 21.2609L37.2474 19.174Z" fill="#BB0505"/>
<path d="M74.7142 6.14362L74.4767 5.57654C74.0293 4.50824 73.2513 3.7285 72.2271 3.32177C70.519 2.64348 68.2062 3.04213 65.5386 4.47451C65.5249 4.48185 65.5115 4.48957 65.4982 4.49774L55.2114 10.8126L45.2542 4.83322C45.0221 4.69386 44.7444 4.68485 44.5055 4.80897L40.0915 7.10081C39.8266 7.2383 39.6457 7.52017 39.6145 7.84375C39.5833 8.16734 39.7065 8.48544 39.9392 8.6824L47.8177 15.3513L41.0588 19.5005L37.5386 17.3866C37.3065 17.2473 37.0288 17.2383 36.7899 17.3624L33.7791 18.9257C33.5142 19.0632 33.3333 19.345 33.3021 19.6686C33.2709 19.9922 33.3942 20.3104 33.6268 20.5073L40.0344 25.9311C40.6396 26.4433 41.3638 26.7061 42.0945 26.7061C42.5833 26.7061 43.0751 26.5884 43.5359 26.3492L46.8257 24.6411L73.0139 10.6981C73.7998 10.2901 74.4114 9.63726 74.7363 8.85975C75.0956 8.00011 75.0877 7.03549 74.7142 6.14362ZM44.8309 6.69017L56.668 13.7983L54.3014 15.0272L51.3981 12.6501C51.0269 12.3462 50.5047 12.4349 50.2317 12.8483C49.9588 13.2616 50.0384 13.8431 50.4096 14.1471L52.5777 15.9221L51.7545 16.3495L42.0493 8.13454L44.8309 6.69017ZM72.3015 9.01796L46.1134 22.9609L42.8309 24.6652C42.2444 24.9699 41.5598 24.8881 41.0444 24.4519L35.7369 19.9594L37.1155 19.2436L40.6672 21.3765C40.9168 21.5264 41.2176 21.5247 41.4661 21.3724L49.2707 16.5813L51.1455 18.1684C51.2934 18.2935 51.4713 18.3578 51.6506 18.3578C51.7703 18.3578 51.8906 18.3291 52.0031 18.2708L58.8787 14.7008C59.1646 14.5523 59.351 14.237 59.3601 13.8858C59.3693 13.5347 59.1999 13.2078 58.9222 13.0411L56.9586 11.8619L66.2838 6.13749C68.4031 5.00332 70.242 4.60997 71.4973 5.0141L68.4197 6.72752C68.0076 6.95699 67.8405 7.51506 68.0466 7.97401C68.1928 8.29954 68.4875 8.48776 68.7935 8.48776C68.9189 8.48776 69.0463 8.45618 69.166 8.38947L72.9317 6.29292C72.9422 6.31624 72.9543 6.33807 72.9643 6.36194L73.2019 6.92903C73.6136 7.91204 72.9781 8.6666 72.3015 9.01796Z" fill="black"/>
</g>
<defs>
<clipPath id="clip0_166_343">
<rect width="64" height="24" fill="white" transform="translate(22 36)"/>
</clipPath>
<clipPath id="clip1_166_343">
<rect width="42" height="24" fill="white" transform="matrix(-1 0 0 1 75 3)"/>
</clipPath>
</defs>
</svg>
