<svg width="28" height="28" viewBox="0 0 28 28" fill="none" xmlns="http://www.w3.org/2000/svg">
<path d="M25.6667 8.79077V19.8333C25.6667 20.726 25.3256 21.585 24.7132 22.2346C24.1007 22.8841 23.2632 23.2751 22.372 23.3274L22.1667 23.3333H5.83334C4.9406 23.3333 4.08158 22.9922 3.43204 22.3798C2.7825 21.7673 2.39155 20.9298 2.33918 20.0386L2.33334 19.8333V8.79077L13.3525 16.1373L13.4878 16.2143C13.6473 16.2922 13.8225 16.3327 14 16.3327C14.1775 16.3327 14.3527 16.2922 14.5122 16.2143L14.6475 16.1373L25.6667 8.79077Z" fill="white"/>
<path d="M22.1667 4.66663C23.4267 4.66663 24.5315 5.33163 25.1475 6.33146L14 13.7631L2.85251 6.33146C3.1451 5.85642 3.54701 5.45821 4.02474 5.17003C4.50247 4.88185 5.04217 4.71205 5.59884 4.67479L5.83334 4.66663H22.1667Z" fill="white"/>
</svg>
