<svg width="16" height="20" viewBox="0 0 16 20" fill="none" xmlns="http://www.w3.org/2000/svg">
<path d="M3 0H13C13.7956 0 14.5587 0.31607 15.1213 0.87868C15.6839 1.44129 16 2.20435 16 3V17C16 17.7956 15.6839 18.5587 15.1213 19.1213C14.5587 19.6839 13.7956 20 13 20H3C2.20435 20 1.44129 19.6839 0.87868 19.1213C0.31607 18.5587 0 17.7956 0 17L0 3C0 2.20435 0.31607 1.44129 0.87868 0.87868C1.44129 0.31607 2.20435 0 3 0ZM11 2C10.7348 2 10.4804 2.10536 10.2929 2.29289C10.1054 2.48043 10 2.73478 10 3C10 3.26522 10.1054 3.51957 10.2929 3.70711C10.4804 3.89464 10.7348 4 11 4H13C13.2652 4 13.5196 3.89464 13.7071 3.70711C13.8946 3.51957 14 3.26522 14 3C14 2.73478 13.8946 2.48043 13.7071 2.29289C13.5196 2.10536 13.2652 2 13 2H11ZM3 9C2.73478 9 2.48043 9.10536 2.29289 9.29289C2.10536 9.48043 2 9.73478 2 10C2 10.2652 2.10536 10.5196 2.29289 10.7071C2.48043 10.8946 2.73478 11 3 11H13C13.2652 11 13.5196 10.8946 13.7071 10.7071C13.8946 10.5196 14 10.2652 14 10C14 9.73478 13.8946 9.48043 13.7071 9.29289C13.5196 9.10536 13.2652 9 13 9H3ZM3 12C2.73478 12 2.48043 12.1054 2.29289 12.2929C2.10536 12.4804 2 12.7348 2 13C2 13.2652 2.10536 13.5196 2.29289 13.7071C2.48043 13.8946 2.73478 14 3 14H13C13.2652 14 13.5196 13.8946 13.7071 13.7071C13.8946 13.5196 14 13.2652 14 13C14 12.7348 13.8946 12.4804 13.7071 12.2929C13.5196 12.1054 13.2652 12 13 12H3ZM3 15C2.73478 15 2.48043 15.1054 2.29289 15.2929C2.10536 15.4804 2 15.7348 2 16C2 16.2652 2.10536 16.5196 2.29289 16.7071C2.48043 16.8946 2.73478 17 3 17H8C8.26522 17 8.51957 16.8946 8.70711 16.7071C8.89464 16.5196 9 16.2652 9 16C9 15.7348 8.89464 15.4804 8.70711 15.2929C8.51957 15.1054 8.26522 15 8 15H3ZM11 5C10.7348 5 10.4804 5.10536 10.2929 5.29289C10.1054 5.48043 10 5.73478 10 6C10 6.26522 10.1054 6.51957 10.2929 6.70711C10.4804 6.89464 10.7348 7 11 7H13C13.2652 7 13.5196 6.89464 13.7071 6.70711C13.8946 6.51957 14 6.26522 14 6C14 5.73478 13.8946 5.48043 13.7071 5.29289C13.5196 5.10536 13.2652 5 13 5H11ZM3 2C2.73478 2 2.48043 2.10536 2.29289 2.29289C2.10536 2.48043 2 2.73478 2 3V6C2 6.26522 2.10536 6.51957 2.29289 6.70711C2.48043 6.89464 2.73478 7 3 7H8C8.26522 7 8.51957 6.89464 8.70711 6.70711C8.89464 6.51957 9 6.26522 9 6V3C9 2.73478 8.89464 2.48043 8.70711 2.29289C8.51957 2.10536 8.26522 2 8 2H3Z" fill="white"/>
</svg>
