<svg width="14" height="14" viewBox="0 0 14 14" fill="none" xmlns="http://www.w3.org/2000/svg">
<g clip-path="url(#clip0_129_760)">
<rect width="14" height="14" rx="7" fill="white"/>
<rect width="14" height="14" fill="#BD0000"/>
<path d="M7.00005 12.9765C10.2638 12.9765 12.9766 10.2695 12.9766 7C12.9766 3.73625 10.2578 1.0235 6.99405 1.0235C3.7248 1.0235 1.0238 3.73625 1.0238 7C1.0238 10.2695 3.73055 12.9765 7.00005 12.9765ZM6.99455 7.879C6.6838 7.879 6.51405 7.69725 6.50205 7.3865L6.42005 4.4925C6.4083 4.17 6.6543 3.94175 6.9883 3.94175C7.31655 3.94175 7.5683 4.176 7.5568 4.49825L7.47455 7.387C7.4628 7.70325 7.28705 7.87925 6.9943 7.87925M6.9943 10.0355C6.6543 10.0355 6.3378 9.766 6.3378 9.4025C6.3378 9.03925 6.64855 8.77 6.9943 8.77C7.33405 8.77 7.6503 9.0335 7.6503 9.4025C7.6503 9.77175 7.32805 10.0355 6.9943 10.0355Z" fill="#D9D9D9"/>
</g>
<defs>
<clipPath id="clip0_129_760">
<rect width="14" height="14" rx="7" fill="white"/>
</clipPath>
</defs>
</svg>
