<svg width="15" height="15" viewBox="0 0 15 15" fill="none" xmlns="http://www.w3.org/2000/svg">
<path d="M11.5 6.5V12.25C11.5 12.4142 11.4677 12.5767 11.4048 12.7284C11.342 12.88 11.25 13.0178 11.1339 13.1339C11.0178 13.25 10.88 13.342 10.7284 13.4048C10.5767 13.4677 10.4142 13.5 10.25 13.5H2.75C2.41848 13.5 2.10054 13.3683 1.86612 13.1339C1.6317 12.8995 1.5 12.5815 1.5 12.25V4.75C1.5 4.41848 1.6317 4.10054 1.86612 3.86612C2.10054 3.6317 2.41848 3.5 2.75 3.5H7.98375M10 1.5H13.5V5M6.5 8.5L13.25 1.75" stroke="#092E66" stroke-width="2" stroke-linecap="round" stroke-linejoin="round"/>
</svg>
