<svg width="28" height="28" viewBox="0 0 28 28" fill="none" xmlns="http://www.w3.org/2000/svg">
<g clip-path="url(#clip0_174_252)">
<path d="M24 0C26.2062 0 28 1.79375 28 4V24C28 26.2062 26.2062 28 24 28H4C1.79375 28 0 26.2062 0 24V4C0 1.79375 1.79375 0 4 0H24ZM18.3312 6.04375C17.725 5.88125 17.0875 6.1875 16.85 6.76875L15.6 9.76875C15.3875 10.2813 15.5375 10.8688 15.9625 11.2188L17.5 12.4812C16.4625 14.6812 14.6812 16.4625 12.4812 17.5L11.2188 15.9562C10.8688 15.5312 10.2813 15.3812 9.76875 15.5938L6.76875 16.8438C6.1875 17.0875 5.88125 17.7188 6.04375 18.325L6.79375 21.075C6.94375 21.625 7.4375 22 8 22C15.7312 22 22 15.7312 22 8C22 7.4375 21.625 6.94375 21.0812 6.79375L18.3312 6.04375Z" fill="#092E66"/>
</g>
<defs>
<clipPath id="clip0_174_252">
<rect width="28" height="28" fill="white"/>
</clipPath>
</defs>
</svg>
