<svg width="60" height="196" viewBox="0 0 60 196" fill="none" xmlns="http://www.w3.org/2000/svg">
<g clip-path="url(#clip0_159_459)">
<path d="M9.71831 0V7.57082H26.1972V14.3004H33.8028V7.57082H50.2817V0H9.71831ZM24.507 21.8712L7.60563 34.4893H52.3944L35.493 21.8712H24.507ZM0 42.0601V54.6781H12.6761V42.0601H0ZM20.2817 42.0601V54.6781H39.7183V42.0601H20.2817ZM47.3239 42.0601V54.6781H60V42.0601H47.3239ZM3.80282 62.2489L18.3803 81.5966H41.6197L56.1972 62.2489H3.80282ZM20.2817 89.1674V101.785H39.7183V89.1674H20.2817ZM20.2817 109.356V196H39.7183V109.356H20.2817Z" fill="white"/>
</g>
<defs>
<clipPath id="clip0_159_459">
<rect width="60" height="196" fill="white"/>
</clipPath>
</defs>
</svg>
